<mxfile host="app.diagrams.net" modified="2022-08-21T06:49:52.946Z" agent="5.0 (X11; Linux x86_64) AppleWebKit/537.36 (KHTML, like Gecko) Chrome/103.0.0.0 Safari/537.36" etag="VcaUvOnrh8WIBtqNkwEU" version="20.2.5" type="github" pages="14">
  <diagram id="gseGQmYl7GrwL2zjSi89" name="getTokenAccountsByOwner">
    <mxGraphModel dx="696" dy="755" grid="1" gridSize="10" guides="1" tooltips="1" connect="1" arrows="1" fold="1" page="1" pageScale="1" pageWidth="1169" pageHeight="827" math="0" shadow="0">
      <root>
        <mxCell id="0" />
        <mxCell id="1" parent="0" />
        <mxCell id="D39GrA6TPdGthC5oPKFD-19" value="" style="rounded=1;whiteSpace=wrap;html=1;fillColor=none;strokeColor=#b85450;strokeWidth=2;arcSize=7;dashed=1;" parent="1" vertex="1">
          <mxGeometry x="300" y="210" width="520" height="170" as="geometry" />
        </mxCell>
        <mxCell id="D39GrA6TPdGthC5oPKFD-2" value="program: SystemProgram&lt;br&gt;lamports: 1,191,782,892&lt;br&gt;data: -" style="rounded=0;whiteSpace=wrap;html=1;align=left;spacingLeft=5;" parent="1" vertex="1">
          <mxGeometry x="400" y="100" width="160" height="60" as="geometry" />
        </mxCell>
        <mxCell id="D39GrA6TPdGthC5oPKFD-12" style="edgeStyle=orthogonalEdgeStyle;rounded=0;orthogonalLoop=1;jettySize=auto;html=1;exitX=0.5;exitY=1;exitDx=0;exitDy=0;entryX=0.5;entryY=0;entryDx=0;entryDy=0;" parent="1" source="D39GrA6TPdGthC5oPKFD-3" target="D39GrA6TPdGthC5oPKFD-4" edge="1">
          <mxGeometry relative="1" as="geometry">
            <mxPoint x="430" y="410" as="targetPoint" />
          </mxGeometry>
        </mxCell>
        <mxCell id="D39GrA6TPdGthC5oPKFD-14" style="edgeStyle=orthogonalEdgeStyle;rounded=0;orthogonalLoop=1;jettySize=auto;html=1;exitX=0.5;exitY=0;exitDx=0;exitDy=0;entryX=0.5;entryY=1;entryDx=0;entryDy=0;" parent="1" source="D39GrA6TPdGthC5oPKFD-3" target="D39GrA6TPdGthC5oPKFD-2" edge="1">
          <mxGeometry relative="1" as="geometry" />
        </mxCell>
        <mxCell id="D39GrA6TPdGthC5oPKFD-3" value="program: TokenProgram&lt;br&gt;lamports: -&lt;br&gt;data: &lt;font color=&quot;#cc0000&quot;&gt;TokenAccount&lt;/font&gt;&lt;br&gt;&amp;nbsp; &amp;nbsp;mint: Afn8...BQr6&lt;br&gt;&amp;nbsp; &amp;nbsp;owner: &lt;font color=&quot;#cc0000&quot;&gt;2fng...Gfm8&lt;/font&gt;&lt;br&gt;&amp;nbsp; &amp;nbsp;amount: 168,350,168" style="rounded=0;whiteSpace=wrap;html=1;align=left;spacingLeft=5;verticalAlign=top;" parent="1" vertex="1">
          <mxGeometry x="320" y="240" width="160" height="120" as="geometry" />
        </mxCell>
        <mxCell id="D39GrA6TPdGthC5oPKFD-4" value="program: TokenProgram&lt;br&gt;lamports: -&lt;br&gt;data: Mint&lt;br&gt;&amp;nbsp; &amp;nbsp;decimals: 6&lt;br&gt;&amp;nbsp; &amp;nbsp;supply: nnn&lt;br&gt;&amp;nbsp; &amp;nbsp;mint_authority: xxx...xxx" style="rounded=0;whiteSpace=wrap;html=1;align=left;spacingLeft=5;verticalAlign=top;" parent="1" vertex="1">
          <mxGeometry x="320" y="440" width="160" height="120" as="geometry" />
        </mxCell>
        <mxCell id="D39GrA6TPdGthC5oPKFD-5" value="Afn8...BQr6" style="text;html=1;align=center;verticalAlign=middle;resizable=0;points=[];autosize=1;strokeColor=none;fillColor=none;" parent="1" vertex="1">
          <mxGeometry x="320" y="420" width="80" height="20" as="geometry" />
        </mxCell>
        <mxCell id="D39GrA6TPdGthC5oPKFD-6" value="9cHZ...RQSf" style="text;html=1;align=center;verticalAlign=middle;resizable=0;points=[];autosize=1;strokeColor=none;fillColor=none;" parent="1" vertex="1">
          <mxGeometry x="320" y="220" width="80" height="20" as="geometry" />
        </mxCell>
        <mxCell id="D39GrA6TPdGthC5oPKFD-7" value="2fng...Gfm8" style="text;html=1;align=center;verticalAlign=middle;resizable=0;points=[];autosize=1;strokeColor=none;fillColor=none;" parent="1" vertex="1">
          <mxGeometry x="400" y="80" width="80" height="20" as="geometry" />
        </mxCell>
        <mxCell id="D39GrA6TPdGthC5oPKFD-13" style="edgeStyle=orthogonalEdgeStyle;rounded=0;orthogonalLoop=1;jettySize=auto;html=1;exitX=0.5;exitY=1;exitDx=0;exitDy=0;entryX=0.5;entryY=0;entryDx=0;entryDy=0;" parent="1" source="D39GrA6TPdGthC5oPKFD-8" target="D39GrA6TPdGthC5oPKFD-9" edge="1">
          <mxGeometry relative="1" as="geometry" />
        </mxCell>
        <mxCell id="D39GrA6TPdGthC5oPKFD-15" style="edgeStyle=orthogonalEdgeStyle;rounded=0;orthogonalLoop=1;jettySize=auto;html=1;exitX=0.5;exitY=0;exitDx=0;exitDy=0;entryX=0.5;entryY=1;entryDx=0;entryDy=0;" parent="1" source="D39GrA6TPdGthC5oPKFD-8" target="D39GrA6TPdGthC5oPKFD-2" edge="1">
          <mxGeometry relative="1" as="geometry">
            <mxPoint x="480" y="180" as="targetPoint" />
          </mxGeometry>
        </mxCell>
        <mxCell id="D39GrA6TPdGthC5oPKFD-8" value="program: TokenProgram&lt;br&gt;lamports: -&lt;br&gt;data: &lt;font color=&quot;#cc0000&quot;&gt;TokenAccount&lt;/font&gt;&lt;br&gt;&amp;nbsp; &amp;nbsp;mint: BRjp...ok1k&lt;br&gt;&amp;nbsp; &amp;nbsp;owner: &lt;font color=&quot;#cc0000&quot;&gt;2fng...Gfm8&lt;/font&gt;&lt;br&gt;&amp;nbsp; &amp;nbsp;amount: 18,138,779" style="rounded=0;whiteSpace=wrap;html=1;align=left;spacingLeft=5;verticalAlign=top;" parent="1" vertex="1">
          <mxGeometry x="560" y="240" width="160" height="120" as="geometry" />
        </mxCell>
        <mxCell id="D39GrA6TPdGthC5oPKFD-9" value="program: TokenProgram&lt;br&gt;lamports: -&lt;br&gt;data: Mint&lt;br&gt;&amp;nbsp; &amp;nbsp;decimals: 6&lt;br&gt;&amp;nbsp; &amp;nbsp;supply: nnn&lt;br&gt;&amp;nbsp; &amp;nbsp;mint_authority: xxx...xxx" style="rounded=0;whiteSpace=wrap;html=1;align=left;spacingLeft=5;verticalAlign=top;" parent="1" vertex="1">
          <mxGeometry x="560" y="440" width="160" height="120" as="geometry" />
        </mxCell>
        <mxCell id="D39GrA6TPdGthC5oPKFD-10" value="BRjp...ok1k" style="text;html=1;align=center;verticalAlign=middle;resizable=0;points=[];autosize=1;strokeColor=none;fillColor=none;" parent="1" vertex="1">
          <mxGeometry x="560" y="420" width="80" height="20" as="geometry" />
        </mxCell>
        <mxCell id="D39GrA6TPdGthC5oPKFD-11" value="F28e...1fmm" style="text;html=1;align=center;verticalAlign=middle;resizable=0;points=[];autosize=1;strokeColor=none;fillColor=none;" parent="1" vertex="1">
          <mxGeometry x="560" y="220" width="80" height="20" as="geometry" />
        </mxCell>
        <mxCell id="D39GrA6TPdGthC5oPKFD-17" value="" style="endArrow=none;html=1;rounded=0;strokeWidth=5;dashed=1;dashPattern=1 1;strokeColor=#999999;" parent="1" edge="1">
          <mxGeometry width="50" height="50" relative="1" as="geometry">
            <mxPoint x="750" y="299.5" as="sourcePoint" />
            <mxPoint x="810" y="299.5" as="targetPoint" />
          </mxGeometry>
        </mxCell>
        <mxCell id="D39GrA6TPdGthC5oPKFD-18" value="" style="endArrow=none;html=1;rounded=0;strokeWidth=5;dashed=1;dashPattern=1 1;strokeColor=#999999;" parent="1" edge="1">
          <mxGeometry width="50" height="50" relative="1" as="geometry">
            <mxPoint x="750" y="500" as="sourcePoint" />
            <mxPoint x="810" y="500" as="targetPoint" />
          </mxGeometry>
        </mxCell>
        <mxCell id="D39GrA6TPdGthC5oPKFD-20" value="getTokenAccountsByOwner() が返すアカウント" style="text;html=1;strokeColor=none;fillColor=none;align=center;verticalAlign=middle;whiteSpace=wrap;rounded=0;fontColor=#CC0000;" parent="1" vertex="1">
          <mxGeometry x="550" y="177" width="260" height="30" as="geometry" />
        </mxCell>
      </root>
    </mxGraphModel>
  </diagram>
  <diagram name="getTokenAccountsByOwner(EN)" id="Y-UrNeEukqk-pd-akmEf">
    <mxGraphModel dx="1422" dy="709" grid="1" gridSize="10" guides="1" tooltips="1" connect="1" arrows="1" fold="1" page="1" pageScale="1" pageWidth="1169" pageHeight="827" math="0" shadow="0">
      <root>
        <mxCell id="hw5pySiAhi9btukcG5X8-0" />
        <mxCell id="hw5pySiAhi9btukcG5X8-1" parent="hw5pySiAhi9btukcG5X8-0" />
        <mxCell id="hw5pySiAhi9btukcG5X8-2" value="" style="rounded=1;whiteSpace=wrap;html=1;fillColor=none;strokeColor=#b85450;strokeWidth=2;arcSize=7;dashed=1;" parent="hw5pySiAhi9btukcG5X8-1" vertex="1">
          <mxGeometry x="300" y="210" width="520" height="170" as="geometry" />
        </mxCell>
        <mxCell id="hw5pySiAhi9btukcG5X8-3" value="program: SystemProgram&lt;br&gt;lamports: 1,191,782,892&lt;br&gt;data: -" style="rounded=0;whiteSpace=wrap;html=1;align=left;spacingLeft=5;" parent="hw5pySiAhi9btukcG5X8-1" vertex="1">
          <mxGeometry x="400" y="100" width="160" height="60" as="geometry" />
        </mxCell>
        <mxCell id="hw5pySiAhi9btukcG5X8-4" style="edgeStyle=orthogonalEdgeStyle;rounded=0;orthogonalLoop=1;jettySize=auto;html=1;exitX=0.5;exitY=1;exitDx=0;exitDy=0;entryX=0.5;entryY=0;entryDx=0;entryDy=0;" parent="hw5pySiAhi9btukcG5X8-1" source="hw5pySiAhi9btukcG5X8-6" target="hw5pySiAhi9btukcG5X8-7" edge="1">
          <mxGeometry relative="1" as="geometry">
            <mxPoint x="430" y="410" as="targetPoint" />
          </mxGeometry>
        </mxCell>
        <mxCell id="hw5pySiAhi9btukcG5X8-5" style="edgeStyle=orthogonalEdgeStyle;rounded=0;orthogonalLoop=1;jettySize=auto;html=1;exitX=0.5;exitY=0;exitDx=0;exitDy=0;entryX=0.5;entryY=1;entryDx=0;entryDy=0;" parent="hw5pySiAhi9btukcG5X8-1" source="hw5pySiAhi9btukcG5X8-6" target="hw5pySiAhi9btukcG5X8-3" edge="1">
          <mxGeometry relative="1" as="geometry" />
        </mxCell>
        <mxCell id="hw5pySiAhi9btukcG5X8-6" value="program: TokenProgram&lt;br&gt;lamports: -&lt;br&gt;data: &lt;font color=&quot;#cc0000&quot;&gt;TokenAccount&lt;/font&gt;&lt;br&gt;&amp;nbsp; &amp;nbsp;mint: Afn8...BQr6&lt;br&gt;&amp;nbsp; &amp;nbsp;owner: &lt;font color=&quot;#cc0000&quot;&gt;FptV...RAXB&lt;/font&gt;&lt;br&gt;&amp;nbsp; &amp;nbsp;amount:&amp;nbsp;&lt;span style=&quot;&quot; data-slate-fragment=&quot;JTdCJTIyb2JqZWN0JTIyJTNBJTIyZG9jdW1lbnQlMjIlMkMlMjJkYXRhJTIyJTNBJTdCJTdEJTJDJTIybm9kZXMlMjIlM0ElNUIlN0IlMjJvYmplY3QlMjIlM0ElMjJibG9jayUyMiUyQyUyMnR5cGUlMjIlM0ElMjJwYXJhZ3JhcGglMjIlMkMlMjJpc1ZvaWQlMjIlM0FmYWxzZSUyQyUyMmRhdGElMjIlM0ElN0IlN0QlMkMlMjJub2RlcyUyMiUzQSU1QiU3QiUyMm9iamVjdCUyMiUzQSUyMnRleHQlMjIlMkMlMjJsZWF2ZXMlMjIlM0ElNUIlN0IlMjJvYmplY3QlMjIlM0ElMjJsZWFmJTIyJTJDJTIydGV4dCUyMiUzQSUyMjE1MTI0MDE2OSUyMiUyQyUyMm1hcmtzJTIyJTNBJTVCJTVEJTJDJTIyc2VsZWN0aW9ucyUyMiUzQSU1QiU1RCU3RCU1RCUyQyUyMmtleSUyMiUzQSUyMjU0OGZhZDlmODBlNDQ1MDJiOGQzMmM2ZGM1YTFhN2RjJTIyJTdEJTVEJTJDJTIya2V5JTIyJTNBJTIyMTVjMDFiYjUzNWI4NDk0YWE5OGQxOTVkODJlNGJkMjclMjIlN0QlNUQlMkMlMjJrZXklMjIlM0ElMjIyYWQ1MzEzMWNhYTU0NTcwOWYyODdmZDA1ZTkzN2QyNiUyMiU3RA==&quot;&gt;151,240,169&lt;/span&gt;" style="rounded=0;whiteSpace=wrap;html=1;align=left;spacingLeft=5;verticalAlign=top;" parent="hw5pySiAhi9btukcG5X8-1" vertex="1">
          <mxGeometry x="320" y="240" width="160" height="120" as="geometry" />
        </mxCell>
        <mxCell id="hw5pySiAhi9btukcG5X8-7" value="program: TokenProgram&lt;br&gt;lamports: -&lt;br&gt;data: Mint&lt;br&gt;&amp;nbsp; &amp;nbsp;decimals: 6&lt;br&gt;&amp;nbsp; &amp;nbsp;supply: nnn&lt;br&gt;&amp;nbsp; &amp;nbsp;mint_authority: xxx...xxx" style="rounded=0;whiteSpace=wrap;html=1;align=left;spacingLeft=5;verticalAlign=top;" parent="hw5pySiAhi9btukcG5X8-1" vertex="1">
          <mxGeometry x="320" y="440" width="160" height="120" as="geometry" />
        </mxCell>
        <mxCell id="hw5pySiAhi9btukcG5X8-8" value="Afn8...BQr6" style="text;html=1;align=center;verticalAlign=middle;resizable=0;points=[];autosize=1;strokeColor=none;fillColor=none;" parent="hw5pySiAhi9btukcG5X8-1" vertex="1">
          <mxGeometry x="320" y="420" width="80" height="20" as="geometry" />
        </mxCell>
        <mxCell id="hw5pySiAhi9btukcG5X8-9" value="B3PX...jUky" style="text;html=1;align=center;verticalAlign=middle;resizable=0;points=[];autosize=1;strokeColor=none;fillColor=none;" parent="hw5pySiAhi9btukcG5X8-1" vertex="1">
          <mxGeometry x="315" y="215" width="90" height="30" as="geometry" />
        </mxCell>
        <mxCell id="hw5pySiAhi9btukcG5X8-10" value="FptV...RAXB" style="text;html=1;align=center;verticalAlign=middle;resizable=0;points=[];autosize=1;strokeColor=none;fillColor=none;" parent="hw5pySiAhi9btukcG5X8-1" vertex="1">
          <mxGeometry x="395" y="75" width="90" height="30" as="geometry" />
        </mxCell>
        <mxCell id="hw5pySiAhi9btukcG5X8-11" style="edgeStyle=orthogonalEdgeStyle;rounded=0;orthogonalLoop=1;jettySize=auto;html=1;exitX=0.5;exitY=1;exitDx=0;exitDy=0;entryX=0.5;entryY=0;entryDx=0;entryDy=0;" parent="hw5pySiAhi9btukcG5X8-1" source="hw5pySiAhi9btukcG5X8-13" target="hw5pySiAhi9btukcG5X8-14" edge="1">
          <mxGeometry relative="1" as="geometry" />
        </mxCell>
        <mxCell id="hw5pySiAhi9btukcG5X8-12" style="edgeStyle=orthogonalEdgeStyle;rounded=0;orthogonalLoop=1;jettySize=auto;html=1;exitX=0.5;exitY=0;exitDx=0;exitDy=0;entryX=0.5;entryY=1;entryDx=0;entryDy=0;" parent="hw5pySiAhi9btukcG5X8-1" source="hw5pySiAhi9btukcG5X8-13" target="hw5pySiAhi9btukcG5X8-3" edge="1">
          <mxGeometry relative="1" as="geometry">
            <mxPoint x="480" y="180" as="targetPoint" />
          </mxGeometry>
        </mxCell>
        <mxCell id="hw5pySiAhi9btukcG5X8-13" value="program: TokenProgram&lt;br&gt;lamports: -&lt;br&gt;data: &lt;font color=&quot;#cc0000&quot;&gt;TokenAccount&lt;/font&gt;&lt;br&gt;&amp;nbsp; &amp;nbsp;mint: BRjp...ok1k&lt;br&gt;&amp;nbsp; &amp;nbsp;owner: &lt;font color=&quot;#cc0000&quot;&gt;FptV...RAXB&lt;/font&gt;&lt;br&gt;&amp;nbsp; &amp;nbsp;amount:&amp;nbsp;&lt;span style=&quot;&quot; data-slate-fragment=&quot;JTdCJTIyb2JqZWN0JTIyJTNBJTIyZG9jdW1lbnQlMjIlMkMlMjJkYXRhJTIyJTNBJTdCJTdEJTJDJTIybm9kZXMlMjIlM0ElNUIlN0IlMjJvYmplY3QlMjIlM0ElMjJibG9jayUyMiUyQyUyMnR5cGUlMjIlM0ElMjJwYXJhZ3JhcGglMjIlMkMlMjJpc1ZvaWQlMjIlM0FmYWxzZSUyQyUyMmRhdGElMjIlM0ElN0IlN0QlMkMlMjJub2RlcyUyMiUzQSU1QiU3QiUyMm9iamVjdCUyMiUzQSUyMnRleHQlMjIlMkMlMjJsZWF2ZXMlMjIlM0ElNUIlN0IlMjJvYmplY3QlMjIlM0ElMjJsZWFmJTIyJTJDJTIydGV4dCUyMiUzQSUyMjE1MDk5NTQ3JTIwJTIyJTJDJTIybWFya3MlMjIlM0ElNUIlNUQlMkMlMjJzZWxlY3Rpb25zJTIyJTNBJTVCJTVEJTdEJTVEJTJDJTIya2V5JTIyJTNBJTIyZTFjZWNjNTRjMDBmNGYzODkwMDdiMmE3MGNkYWU4ODQlMjIlN0QlNUQlMkMlMjJrZXklMjIlM0ElMjI5NzQ4Njg2ODFiMzI0ZjE1OGMwODFmMTY4Mzk0Y2MzZSUyMiU3RCU1RCUyQyUyMmtleSUyMiUzQSUyMjYzYTQ4MTM3MGI2NjRmODc4NWJlZDE4OGZjZTc2ODYwJTIyJTdE&quot;&gt;15,099,547 &lt;/span&gt;" style="rounded=0;whiteSpace=wrap;html=1;align=left;spacingLeft=5;verticalAlign=top;" parent="hw5pySiAhi9btukcG5X8-1" vertex="1">
          <mxGeometry x="560" y="240" width="160" height="120" as="geometry" />
        </mxCell>
        <mxCell id="hw5pySiAhi9btukcG5X8-14" value="program: TokenProgram&lt;br&gt;lamports: -&lt;br&gt;data: Mint&lt;br&gt;&amp;nbsp; &amp;nbsp;decimals: 6&lt;br&gt;&amp;nbsp; &amp;nbsp;supply: nnn&lt;br&gt;&amp;nbsp; &amp;nbsp;mint_authority: xxx...xxx" style="rounded=0;whiteSpace=wrap;html=1;align=left;spacingLeft=5;verticalAlign=top;" parent="hw5pySiAhi9btukcG5X8-1" vertex="1">
          <mxGeometry x="560" y="440" width="160" height="120" as="geometry" />
        </mxCell>
        <mxCell id="hw5pySiAhi9btukcG5X8-15" value="BRjp...ok1k" style="text;html=1;align=center;verticalAlign=middle;resizable=0;points=[];autosize=1;strokeColor=none;fillColor=none;" parent="hw5pySiAhi9btukcG5X8-1" vertex="1">
          <mxGeometry x="560" y="420" width="80" height="20" as="geometry" />
        </mxCell>
        <mxCell id="hw5pySiAhi9btukcG5X8-16" value="FZaV...gpiw" style="text;html=1;align=center;verticalAlign=middle;resizable=0;points=[];autosize=1;strokeColor=none;fillColor=none;" parent="hw5pySiAhi9btukcG5X8-1" vertex="1">
          <mxGeometry x="555" y="215" width="90" height="30" as="geometry" />
        </mxCell>
        <mxCell id="hw5pySiAhi9btukcG5X8-17" value="" style="endArrow=none;html=1;rounded=0;strokeWidth=5;dashed=1;dashPattern=1 1;strokeColor=#999999;" parent="hw5pySiAhi9btukcG5X8-1" edge="1">
          <mxGeometry width="50" height="50" relative="1" as="geometry">
            <mxPoint x="750" y="299.5" as="sourcePoint" />
            <mxPoint x="810" y="299.5" as="targetPoint" />
          </mxGeometry>
        </mxCell>
        <mxCell id="hw5pySiAhi9btukcG5X8-18" value="" style="endArrow=none;html=1;rounded=0;strokeWidth=5;dashed=1;dashPattern=1 1;strokeColor=#999999;" parent="hw5pySiAhi9btukcG5X8-1" edge="1">
          <mxGeometry width="50" height="50" relative="1" as="geometry">
            <mxPoint x="750" y="500" as="sourcePoint" />
            <mxPoint x="810" y="500" as="targetPoint" />
          </mxGeometry>
        </mxCell>
        <mxCell id="hw5pySiAhi9btukcG5X8-19" value="Accounts returned by getTokenAccountsByOwner()" style="text;html=1;strokeColor=none;fillColor=none;align=center;verticalAlign=middle;whiteSpace=wrap;rounded=0;fontColor=#CC0000;" parent="hw5pySiAhi9btukcG5X8-1" vertex="1">
          <mxGeometry x="530" y="177" width="290" height="30" as="geometry" />
        </mxCell>
      </root>
    </mxGraphModel>
  </diagram>
  <diagram name="tokenTransfer" id="DalhOY3k2uuvJXuvXZ0e">
    <mxGraphModel dx="696" dy="755" grid="1" gridSize="10" guides="1" tooltips="1" connect="1" arrows="1" fold="1" page="1" pageScale="1" pageWidth="1169" pageHeight="827" math="0" shadow="0">
      <root>
        <mxCell id="oKEp4gG-rUTa1ehVLOhk-0" />
        <mxCell id="oKEp4gG-rUTa1ehVLOhk-1" parent="oKEp4gG-rUTa1ehVLOhk-0" />
        <mxCell id="oKEp4gG-rUTa1ehVLOhk-3" value="program: SystemProgram&lt;br&gt;lamports: 1,191,782,892&lt;br&gt;data: -" style="rounded=0;whiteSpace=wrap;html=1;align=left;spacingLeft=5;" parent="oKEp4gG-rUTa1ehVLOhk-1" vertex="1">
          <mxGeometry x="320" y="100" width="160" height="60" as="geometry" />
        </mxCell>
        <mxCell id="oKEp4gG-rUTa1ehVLOhk-4" style="edgeStyle=orthogonalEdgeStyle;rounded=0;orthogonalLoop=1;jettySize=auto;html=1;exitX=0.5;exitY=1;exitDx=0;exitDy=0;entryX=0.5;entryY=0;entryDx=0;entryDy=0;" parent="oKEp4gG-rUTa1ehVLOhk-1" source="oKEp4gG-rUTa1ehVLOhk-6" target="oKEp4gG-rUTa1ehVLOhk-7" edge="1">
          <mxGeometry relative="1" as="geometry">
            <mxPoint x="430" y="410" as="targetPoint" />
          </mxGeometry>
        </mxCell>
        <mxCell id="oKEp4gG-rUTa1ehVLOhk-5" style="edgeStyle=orthogonalEdgeStyle;rounded=0;orthogonalLoop=1;jettySize=auto;html=1;exitX=0.5;exitY=0;exitDx=0;exitDy=0;entryX=0.5;entryY=1;entryDx=0;entryDy=0;" parent="oKEp4gG-rUTa1ehVLOhk-1" source="oKEp4gG-rUTa1ehVLOhk-6" target="oKEp4gG-rUTa1ehVLOhk-3" edge="1">
          <mxGeometry relative="1" as="geometry" />
        </mxCell>
        <mxCell id="oKEp4gG-rUTa1ehVLOhk-6" value="program: TokenProgram&lt;br&gt;lamports: -&lt;br&gt;data: &lt;font&gt;TokenAccount&lt;/font&gt;&lt;br&gt;&amp;nbsp; &amp;nbsp;mint: Jd4M...TuDa&lt;br&gt;&amp;nbsp; &amp;nbsp;owner: &lt;font&gt;2fng...Gfm8&lt;/font&gt;&lt;br&gt;&amp;nbsp; &amp;nbsp;amount: &lt;font style=&quot;font-size: 11px&quot;&gt;1,809,223,512,336&lt;/font&gt;" style="rounded=0;whiteSpace=wrap;html=1;align=left;spacingLeft=5;verticalAlign=top;fontColor=#000000;" parent="oKEp4gG-rUTa1ehVLOhk-1" vertex="1">
          <mxGeometry x="320" y="240" width="160" height="120" as="geometry" />
        </mxCell>
        <mxCell id="oKEp4gG-rUTa1ehVLOhk-7" value="program: TokenProgram&lt;br&gt;lamports: -&lt;br&gt;data: Mint&lt;br&gt;&amp;nbsp; &amp;nbsp;decimals: 9&lt;br&gt;&amp;nbsp; &amp;nbsp;supply: nnn&lt;br&gt;&amp;nbsp; &amp;nbsp;mint_authority: xxx...xxx" style="rounded=0;whiteSpace=wrap;html=1;align=left;spacingLeft=5;verticalAlign=top;" parent="oKEp4gG-rUTa1ehVLOhk-1" vertex="1">
          <mxGeometry x="320" y="440" width="160" height="120" as="geometry" />
        </mxCell>
        <mxCell id="oKEp4gG-rUTa1ehVLOhk-8" value="Jd4M...TuDa" style="text;html=1;align=center;verticalAlign=middle;resizable=0;points=[];autosize=1;strokeColor=none;fillColor=none;" parent="oKEp4gG-rUTa1ehVLOhk-1" vertex="1">
          <mxGeometry x="320" y="420" width="80" height="20" as="geometry" />
        </mxCell>
        <mxCell id="oKEp4gG-rUTa1ehVLOhk-9" value="2CYs...tGiH" style="text;html=1;align=center;verticalAlign=middle;resizable=0;points=[];autosize=1;strokeColor=none;fillColor=none;" parent="oKEp4gG-rUTa1ehVLOhk-1" vertex="1">
          <mxGeometry x="320" y="220" width="80" height="20" as="geometry" />
        </mxCell>
        <mxCell id="oKEp4gG-rUTa1ehVLOhk-10" value="2fng...Gfm8" style="text;html=1;align=center;verticalAlign=middle;resizable=0;points=[];autosize=1;strokeColor=none;fillColor=none;" parent="oKEp4gG-rUTa1ehVLOhk-1" vertex="1">
          <mxGeometry x="320" y="80" width="80" height="20" as="geometry" />
        </mxCell>
        <mxCell id="oKEp4gG-rUTa1ehVLOhk-11" style="edgeStyle=orthogonalEdgeStyle;rounded=0;orthogonalLoop=1;jettySize=auto;html=1;exitX=0.5;exitY=1;exitDx=0;exitDy=0;entryX=1;entryY=0.5;entryDx=0;entryDy=0;" parent="oKEp4gG-rUTa1ehVLOhk-1" source="oKEp4gG-rUTa1ehVLOhk-13" target="oKEp4gG-rUTa1ehVLOhk-7" edge="1">
          <mxGeometry relative="1" as="geometry">
            <mxPoint x="640" y="440" as="targetPoint" />
          </mxGeometry>
        </mxCell>
        <mxCell id="oKEp4gG-rUTa1ehVLOhk-12" style="edgeStyle=orthogonalEdgeStyle;rounded=0;orthogonalLoop=1;jettySize=auto;html=1;exitX=0.5;exitY=0;exitDx=0;exitDy=0;entryX=0.5;entryY=1;entryDx=0;entryDy=0;" parent="oKEp4gG-rUTa1ehVLOhk-1" source="oKEp4gG-rUTa1ehVLOhk-13" target="oKEp4gG-rUTa1ehVLOhk-20" edge="1">
          <mxGeometry relative="1" as="geometry">
            <mxPoint x="780" y="180" as="targetPoint" />
          </mxGeometry>
        </mxCell>
        <mxCell id="oKEp4gG-rUTa1ehVLOhk-13" value="program: TokenProgram&lt;br&gt;lamports: -&lt;br&gt;data: &lt;font&gt;TokenAccount&lt;/font&gt;&lt;br&gt;&amp;nbsp; &amp;nbsp;mint: Jd4M...TuDa&lt;br&gt;&amp;nbsp; &amp;nbsp;owner: vQW7...oW5G&lt;br&gt;&amp;nbsp; &amp;nbsp;amount: &lt;font style=&quot;font-size: 11px&quot;&gt;2,033,930,333,817&lt;/font&gt;" style="rounded=0;whiteSpace=wrap;html=1;align=left;spacingLeft=5;verticalAlign=top;fontColor=#000000;" parent="oKEp4gG-rUTa1ehVLOhk-1" vertex="1">
          <mxGeometry x="560" y="240" width="160" height="120" as="geometry" />
        </mxCell>
        <mxCell id="oKEp4gG-rUTa1ehVLOhk-16" value="7WaX...zhkL" style="text;html=1;align=center;verticalAlign=middle;resizable=0;points=[];autosize=1;strokeColor=none;fillColor=none;" parent="oKEp4gG-rUTa1ehVLOhk-1" vertex="1">
          <mxGeometry x="560" y="220" width="80" height="20" as="geometry" />
        </mxCell>
        <mxCell id="oKEp4gG-rUTa1ehVLOhk-20" value="program: SystemProgram&lt;br&gt;lamports: 15,611,672,886&lt;br&gt;data: -" style="rounded=0;whiteSpace=wrap;html=1;align=left;spacingLeft=5;" parent="oKEp4gG-rUTa1ehVLOhk-1" vertex="1">
          <mxGeometry x="560" y="100" width="160" height="60" as="geometry" />
        </mxCell>
        <mxCell id="oKEp4gG-rUTa1ehVLOhk-21" value="vQW7...oW5G" style="text;html=1;align=center;verticalAlign=middle;resizable=0;points=[];autosize=1;strokeColor=none;fillColor=none;" parent="oKEp4gG-rUTa1ehVLOhk-1" vertex="1">
          <mxGeometry x="555" y="80" width="90" height="20" as="geometry" />
        </mxCell>
        <mxCell id="oKEp4gG-rUTa1ehVLOhk-22" value="" style="endArrow=classic;html=1;rounded=0;dashed=1;dashPattern=1 1;fontSize=11;fontColor=#CC0000;strokeColor=#CC0000;strokeWidth=5;exitX=1;exitY=0.5;exitDx=0;exitDy=0;entryX=0;entryY=0.5;entryDx=0;entryDy=0;" parent="oKEp4gG-rUTa1ehVLOhk-1" source="oKEp4gG-rUTa1ehVLOhk-6" target="oKEp4gG-rUTa1ehVLOhk-13" edge="1">
          <mxGeometry width="50" height="50" relative="1" as="geometry">
            <mxPoint x="490" y="290" as="sourcePoint" />
            <mxPoint x="540" y="240" as="targetPoint" />
          </mxGeometry>
        </mxCell>
        <mxCell id="oKEp4gG-rUTa1ehVLOhk-23" value="" style="endArrow=classic;html=1;rounded=0;dashed=1;dashPattern=1 1;fontSize=11;fontColor=#CC0000;strokeColor=#999999;strokeWidth=5;exitX=1;exitY=0.5;exitDx=0;exitDy=0;entryX=0;entryY=0.5;entryDx=0;entryDy=0;" parent="oKEp4gG-rUTa1ehVLOhk-1" source="oKEp4gG-rUTa1ehVLOhk-3" target="oKEp4gG-rUTa1ehVLOhk-20" edge="1">
          <mxGeometry width="50" height="50" relative="1" as="geometry">
            <mxPoint x="490" y="310" as="sourcePoint" />
            <mxPoint x="570" y="310" as="targetPoint" />
          </mxGeometry>
        </mxCell>
        <mxCell id="oKEp4gG-rUTa1ehVLOhk-24" value="&lt;font color=&quot;#000000&quot;&gt;SOL送信&lt;/font&gt;" style="text;html=1;align=center;verticalAlign=middle;resizable=0;points=[];autosize=1;strokeColor=none;fillColor=none;fontSize=11;fontColor=#CC0000;" parent="oKEp4gG-rUTa1ehVLOhk-1" vertex="1">
          <mxGeometry x="490" y="100" width="60" height="20" as="geometry" />
        </mxCell>
        <mxCell id="oKEp4gG-rUTa1ehVLOhk-25" value="&lt;font&gt;トークン送信&lt;/font&gt;" style="text;html=1;align=center;verticalAlign=middle;resizable=0;points=[];autosize=1;strokeColor=none;fillColor=none;fontSize=11;fontColor=#CC0000;" parent="oKEp4gG-rUTa1ehVLOhk-1" vertex="1">
          <mxGeometry x="477" y="270" width="80" height="20" as="geometry" />
        </mxCell>
        <mxCell id="922hzWeStMWyCIRfPddp-0" value="" style="rounded=1;whiteSpace=wrap;html=1;fillColor=none;strokeColor=#b85450;strokeWidth=2;arcSize=7;dashed=1;" parent="oKEp4gG-rUTa1ehVLOhk-1" vertex="1">
          <mxGeometry x="556" y="210" width="174" height="170" as="geometry" />
        </mxCell>
        <mxCell id="LgRFXuxOcLK5_wykWfVx-0" value="&lt;font&gt;存在しない場合は作成が必要&lt;/font&gt;" style="text;html=1;align=center;verticalAlign=middle;resizable=0;points=[];autosize=1;strokeColor=none;fillColor=none;fontSize=11;fontColor=#CC0000;" parent="oKEp4gG-rUTa1ehVLOhk-1" vertex="1">
          <mxGeometry x="565" y="380" width="160" height="20" as="geometry" />
        </mxCell>
      </root>
    </mxGraphModel>
  </diagram>
  <diagram name="tokenTransfer(EN)" id="ZxfaJtnDdQGGTdTg_aLo">
    <mxGraphModel dx="1422" dy="709" grid="1" gridSize="10" guides="1" tooltips="1" connect="1" arrows="1" fold="1" page="1" pageScale="1" pageWidth="1169" pageHeight="827" math="0" shadow="0">
      <root>
        <mxCell id="etYSf-iRhFx93XKk8EIq-0" />
        <mxCell id="etYSf-iRhFx93XKk8EIq-1" parent="etYSf-iRhFx93XKk8EIq-0" />
        <mxCell id="etYSf-iRhFx93XKk8EIq-2" value="program: SystemProgram&lt;br&gt;lamports: 1,191,782,892&lt;br&gt;data: -" style="rounded=0;whiteSpace=wrap;html=1;align=left;spacingLeft=5;" parent="etYSf-iRhFx93XKk8EIq-1" vertex="1">
          <mxGeometry x="320" y="100" width="160" height="60" as="geometry" />
        </mxCell>
        <mxCell id="etYSf-iRhFx93XKk8EIq-3" style="edgeStyle=orthogonalEdgeStyle;rounded=0;orthogonalLoop=1;jettySize=auto;html=1;exitX=0.5;exitY=1;exitDx=0;exitDy=0;entryX=0.5;entryY=0;entryDx=0;entryDy=0;" parent="etYSf-iRhFx93XKk8EIq-1" source="etYSf-iRhFx93XKk8EIq-5" target="etYSf-iRhFx93XKk8EIq-6" edge="1">
          <mxGeometry relative="1" as="geometry">
            <mxPoint x="430" y="410" as="targetPoint" />
          </mxGeometry>
        </mxCell>
        <mxCell id="etYSf-iRhFx93XKk8EIq-4" style="edgeStyle=orthogonalEdgeStyle;rounded=0;orthogonalLoop=1;jettySize=auto;html=1;exitX=0.5;exitY=0;exitDx=0;exitDy=0;entryX=0.5;entryY=1;entryDx=0;entryDy=0;" parent="etYSf-iRhFx93XKk8EIq-1" source="etYSf-iRhFx93XKk8EIq-5" target="etYSf-iRhFx93XKk8EIq-2" edge="1">
          <mxGeometry relative="1" as="geometry" />
        </mxCell>
        <mxCell id="etYSf-iRhFx93XKk8EIq-5" value="program: TokenProgram&lt;br&gt;lamports: -&lt;br&gt;data: &lt;font&gt;TokenAccount&lt;/font&gt;&lt;br&gt;&amp;nbsp; &amp;nbsp;mint: Jd4M...TuDa&lt;br&gt;&amp;nbsp; &amp;nbsp;owner: FptV&lt;font&gt;...RAXB&lt;/font&gt;&lt;br&gt;&amp;nbsp; &amp;nbsp;amount: &lt;font style=&quot;font-size: 11px&quot;&gt;1,809,223,512,336&lt;/font&gt;" style="rounded=0;whiteSpace=wrap;html=1;align=left;spacingLeft=5;verticalAlign=top;fontColor=#000000;" parent="etYSf-iRhFx93XKk8EIq-1" vertex="1">
          <mxGeometry x="320" y="240" width="160" height="120" as="geometry" />
        </mxCell>
        <mxCell id="etYSf-iRhFx93XKk8EIq-6" value="program: TokenProgram&lt;br&gt;lamports: -&lt;br&gt;data: Mint&lt;br&gt;&amp;nbsp; &amp;nbsp;decimals: 9&lt;br&gt;&amp;nbsp; &amp;nbsp;supply: nnn&lt;br&gt;&amp;nbsp; &amp;nbsp;mint_authority: xxx...xxx" style="rounded=0;whiteSpace=wrap;html=1;align=left;spacingLeft=5;verticalAlign=top;" parent="etYSf-iRhFx93XKk8EIq-1" vertex="1">
          <mxGeometry x="320" y="440" width="160" height="120" as="geometry" />
        </mxCell>
        <mxCell id="etYSf-iRhFx93XKk8EIq-7" value="Jd4M...TuDa" style="text;html=1;align=center;verticalAlign=middle;resizable=0;points=[];autosize=1;strokeColor=none;fillColor=none;" parent="etYSf-iRhFx93XKk8EIq-1" vertex="1">
          <mxGeometry x="320" y="420" width="80" height="20" as="geometry" />
        </mxCell>
        <mxCell id="etYSf-iRhFx93XKk8EIq-8" value="H5vU...LCAE" style="text;html=1;align=center;verticalAlign=middle;resizable=0;points=[];autosize=1;strokeColor=none;fillColor=none;" parent="etYSf-iRhFx93XKk8EIq-1" vertex="1">
          <mxGeometry x="315" y="215" width="90" height="30" as="geometry" />
        </mxCell>
        <mxCell id="etYSf-iRhFx93XKk8EIq-9" value="FptV...RAXB" style="text;html=1;align=center;verticalAlign=middle;resizable=0;points=[];autosize=1;strokeColor=none;fillColor=none;" parent="etYSf-iRhFx93XKk8EIq-1" vertex="1">
          <mxGeometry x="315" y="75" width="90" height="30" as="geometry" />
        </mxCell>
        <mxCell id="etYSf-iRhFx93XKk8EIq-10" style="edgeStyle=orthogonalEdgeStyle;rounded=0;orthogonalLoop=1;jettySize=auto;html=1;exitX=0.5;exitY=1;exitDx=0;exitDy=0;entryX=1;entryY=0.5;entryDx=0;entryDy=0;" parent="etYSf-iRhFx93XKk8EIq-1" source="etYSf-iRhFx93XKk8EIq-12" target="etYSf-iRhFx93XKk8EIq-6" edge="1">
          <mxGeometry relative="1" as="geometry">
            <mxPoint x="640" y="440" as="targetPoint" />
          </mxGeometry>
        </mxCell>
        <mxCell id="etYSf-iRhFx93XKk8EIq-11" style="edgeStyle=orthogonalEdgeStyle;rounded=0;orthogonalLoop=1;jettySize=auto;html=1;exitX=0.5;exitY=0;exitDx=0;exitDy=0;entryX=0.5;entryY=1;entryDx=0;entryDy=0;" parent="etYSf-iRhFx93XKk8EIq-1" source="etYSf-iRhFx93XKk8EIq-12" target="etYSf-iRhFx93XKk8EIq-14" edge="1">
          <mxGeometry relative="1" as="geometry">
            <mxPoint x="780" y="180" as="targetPoint" />
          </mxGeometry>
        </mxCell>
        <mxCell id="etYSf-iRhFx93XKk8EIq-12" value="program: TokenProgram&lt;br&gt;lamports: -&lt;br&gt;data: &lt;font&gt;TokenAccount&lt;/font&gt;&lt;br&gt;&amp;nbsp; &amp;nbsp;mint: Jd4M...TuDa&lt;br&gt;&amp;nbsp; &amp;nbsp;owner: vQW7...oW5G&lt;br&gt;&amp;nbsp; &amp;nbsp;amount: &lt;font style=&quot;font-size: 11px&quot;&gt;2,033,930,333,817&lt;/font&gt;" style="rounded=0;whiteSpace=wrap;html=1;align=left;spacingLeft=5;verticalAlign=top;fontColor=#000000;" parent="etYSf-iRhFx93XKk8EIq-1" vertex="1">
          <mxGeometry x="560" y="240" width="160" height="120" as="geometry" />
        </mxCell>
        <mxCell id="etYSf-iRhFx93XKk8EIq-13" value="7WaX...zhkL" style="text;html=1;align=center;verticalAlign=middle;resizable=0;points=[];autosize=1;strokeColor=none;fillColor=none;" parent="etYSf-iRhFx93XKk8EIq-1" vertex="1">
          <mxGeometry x="560" y="220" width="80" height="20" as="geometry" />
        </mxCell>
        <mxCell id="etYSf-iRhFx93XKk8EIq-14" value="program: SystemProgram&lt;br&gt;lamports: 15,611,672,886&lt;br&gt;data: -" style="rounded=0;whiteSpace=wrap;html=1;align=left;spacingLeft=5;" parent="etYSf-iRhFx93XKk8EIq-1" vertex="1">
          <mxGeometry x="560" y="100" width="160" height="60" as="geometry" />
        </mxCell>
        <mxCell id="etYSf-iRhFx93XKk8EIq-15" value="vQW7...oW5G" style="text;html=1;align=center;verticalAlign=middle;resizable=0;points=[];autosize=1;strokeColor=none;fillColor=none;" parent="etYSf-iRhFx93XKk8EIq-1" vertex="1">
          <mxGeometry x="555" y="80" width="90" height="20" as="geometry" />
        </mxCell>
        <mxCell id="etYSf-iRhFx93XKk8EIq-16" value="" style="endArrow=classic;html=1;rounded=0;dashed=1;dashPattern=1 1;fontSize=11;fontColor=#CC0000;strokeColor=#CC0000;strokeWidth=5;exitX=1;exitY=0.5;exitDx=0;exitDy=0;entryX=0;entryY=0.5;entryDx=0;entryDy=0;" parent="etYSf-iRhFx93XKk8EIq-1" source="etYSf-iRhFx93XKk8EIq-5" target="etYSf-iRhFx93XKk8EIq-12" edge="1">
          <mxGeometry width="50" height="50" relative="1" as="geometry">
            <mxPoint x="490" y="290" as="sourcePoint" />
            <mxPoint x="540" y="240" as="targetPoint" />
          </mxGeometry>
        </mxCell>
        <mxCell id="etYSf-iRhFx93XKk8EIq-17" value="" style="endArrow=classic;html=1;rounded=0;dashed=1;dashPattern=1 1;fontSize=11;fontColor=#CC0000;strokeColor=#999999;strokeWidth=5;exitX=1;exitY=0.5;exitDx=0;exitDy=0;entryX=0;entryY=0.5;entryDx=0;entryDy=0;" parent="etYSf-iRhFx93XKk8EIq-1" source="etYSf-iRhFx93XKk8EIq-2" target="etYSf-iRhFx93XKk8EIq-14" edge="1">
          <mxGeometry width="50" height="50" relative="1" as="geometry">
            <mxPoint x="490" y="310" as="sourcePoint" />
            <mxPoint x="570" y="310" as="targetPoint" />
          </mxGeometry>
        </mxCell>
        <mxCell id="etYSf-iRhFx93XKk8EIq-18" value="&lt;font color=&quot;#000000&quot;&gt;Send SOL&lt;/font&gt;" style="text;html=1;align=center;verticalAlign=middle;resizable=0;points=[];autosize=1;strokeColor=none;fillColor=none;fontSize=11;fontColor=#CC0000;" parent="etYSf-iRhFx93XKk8EIq-1" vertex="1">
          <mxGeometry x="485" y="95" width="70" height="30" as="geometry" />
        </mxCell>
        <mxCell id="etYSf-iRhFx93XKk8EIq-19" value="&lt;font&gt;Send Tokens&lt;/font&gt;" style="text;html=1;align=center;verticalAlign=middle;resizable=0;points=[];autosize=1;strokeColor=none;fillColor=none;fontSize=11;fontColor=#CC0000;" parent="etYSf-iRhFx93XKk8EIq-1" vertex="1">
          <mxGeometry x="472" y="265" width="90" height="30" as="geometry" />
        </mxCell>
        <mxCell id="etYSf-iRhFx93XKk8EIq-20" value="" style="rounded=1;whiteSpace=wrap;html=1;fillColor=none;strokeColor=#b85450;strokeWidth=2;arcSize=7;dashed=1;" parent="etYSf-iRhFx93XKk8EIq-1" vertex="1">
          <mxGeometry x="556" y="210" width="174" height="170" as="geometry" />
        </mxCell>
        <mxCell id="etYSf-iRhFx93XKk8EIq-21" value="&lt;font&gt;Must create it if it does not exist&lt;/font&gt;" style="text;html=1;align=center;verticalAlign=middle;resizable=0;points=[];autosize=1;strokeColor=none;fillColor=none;fontSize=11;fontColor=#CC0000;" parent="etYSf-iRhFx93XKk8EIq-1" vertex="1">
          <mxGeometry x="555" y="375" width="180" height="30" as="geometry" />
        </mxCell>
      </root>
    </mxGraphModel>
  </diagram>
  <diagram id="-UwIsAHWzLi4r0ANeqj3" name="TickArray">
    <mxGraphModel dx="696" dy="755" grid="1" gridSize="10" guides="1" tooltips="1" connect="1" arrows="1" fold="1" page="1" pageScale="1" pageWidth="1169" pageHeight="827" math="0" shadow="0">
      <root>
        <mxCell id="bgrbNQ1VQfj2nr2rYASx-0" />
        <mxCell id="bgrbNQ1VQfj2nr2rYASx-1" parent="bgrbNQ1VQfj2nr2rYASx-0" />
        <mxCell id="bGsxvDDaFmV9U7U1dAxG-6" style="edgeStyle=orthogonalEdgeStyle;rounded=0;orthogonalLoop=1;jettySize=auto;html=1;exitX=0.5;exitY=0;exitDx=0;exitDy=0;entryX=0.5;entryY=1;entryDx=0;entryDy=0;fontSize=12;fontColor=#000000;strokeColor=#000000;strokeWidth=1;fillColor=#999999;" parent="bgrbNQ1VQfj2nr2rYASx-1" source="bGsxvDDaFmV9U7U1dAxG-3" target="FAvaJtrObU6wKnq1eF0G-5" edge="1">
          <mxGeometry relative="1" as="geometry" />
        </mxCell>
        <mxCell id="bGsxvDDaFmV9U7U1dAxG-3" value="program: Whirlpool&lt;br&gt;lamports: -&lt;br&gt;data: &lt;font&gt;TickArray&lt;/font&gt;&lt;br&gt;" style="rounded=0;whiteSpace=wrap;html=1;align=left;spacingLeft=5;verticalAlign=top;fontColor=#000000;" parent="bgrbNQ1VQfj2nr2rYASx-1" vertex="1">
          <mxGeometry x="140" y="440" width="120" height="60" as="geometry" />
        </mxCell>
        <mxCell id="FAvaJtrObU6wKnq1eF0G-10" style="edgeStyle=orthogonalEdgeStyle;rounded=0;orthogonalLoop=1;jettySize=auto;html=1;exitX=0.5;exitY=0;exitDx=0;exitDy=0;fontSize=5;fontColor=#CC0000;strokeColor=#000000;strokeWidth=1;" parent="bgrbNQ1VQfj2nr2rYASx-1" source="FAvaJtrObU6wKnq1eF0G-0" edge="1">
          <mxGeometry relative="1" as="geometry">
            <mxPoint x="560" y="360" as="targetPoint" />
          </mxGeometry>
        </mxCell>
        <mxCell id="FAvaJtrObU6wKnq1eF0G-0" value="program: Whirlpool&lt;br&gt;lamports: -&lt;br&gt;data: &lt;font&gt;TickArray&lt;/font&gt;&lt;br&gt;" style="rounded=0;whiteSpace=wrap;html=1;align=left;spacingLeft=5;verticalAlign=top;fontColor=#000000;" parent="bgrbNQ1VQfj2nr2rYASx-1" vertex="1">
          <mxGeometry x="500" y="440" width="120" height="60" as="geometry" />
        </mxCell>
        <mxCell id="FAvaJtrObU6wKnq1eF0G-11" style="edgeStyle=orthogonalEdgeStyle;rounded=0;orthogonalLoop=1;jettySize=auto;html=1;exitX=0.5;exitY=0;exitDx=0;exitDy=0;entryX=0.5;entryY=1;entryDx=0;entryDy=0;fontSize=5;fontColor=#CC0000;strokeColor=#000000;strokeWidth=1;" parent="bgrbNQ1VQfj2nr2rYASx-1" source="FAvaJtrObU6wKnq1eF0G-1" target="FAvaJtrObU6wKnq1eF0G-5" edge="1">
          <mxGeometry relative="1" as="geometry" />
        </mxCell>
        <mxCell id="FAvaJtrObU6wKnq1eF0G-1" value="program: Whirlpool&lt;br&gt;lamports: -&lt;br&gt;data: &lt;font&gt;TickArray&lt;/font&gt;&lt;br&gt;" style="rounded=0;whiteSpace=wrap;html=1;align=left;spacingLeft=5;verticalAlign=top;fontColor=#000000;" parent="bgrbNQ1VQfj2nr2rYASx-1" vertex="1">
          <mxGeometry x="620" y="440" width="120" height="60" as="geometry" />
        </mxCell>
        <mxCell id="FAvaJtrObU6wKnq1eF0G-12" style="edgeStyle=orthogonalEdgeStyle;rounded=0;orthogonalLoop=1;jettySize=auto;html=1;exitX=0.5;exitY=0;exitDx=0;exitDy=0;entryX=0.5;entryY=1;entryDx=0;entryDy=0;fontSize=5;fontColor=#CC0000;strokeColor=#000000;strokeWidth=1;" parent="bgrbNQ1VQfj2nr2rYASx-1" source="FAvaJtrObU6wKnq1eF0G-2" target="FAvaJtrObU6wKnq1eF0G-5" edge="1">
          <mxGeometry relative="1" as="geometry" />
        </mxCell>
        <mxCell id="FAvaJtrObU6wKnq1eF0G-2" value="program: Whirlpool&lt;br&gt;lamports: -&lt;br&gt;data: &lt;font&gt;TickArray&lt;/font&gt;&lt;br&gt;" style="rounded=0;whiteSpace=wrap;html=1;align=left;spacingLeft=5;verticalAlign=top;fontColor=#000000;" parent="bgrbNQ1VQfj2nr2rYASx-1" vertex="1">
          <mxGeometry x="740" y="440" width="120" height="60" as="geometry" />
        </mxCell>
        <mxCell id="FAvaJtrObU6wKnq1eF0G-9" style="edgeStyle=orthogonalEdgeStyle;rounded=0;orthogonalLoop=1;jettySize=auto;html=1;exitX=0.5;exitY=0;exitDx=0;exitDy=0;fontSize=5;fontColor=#CC0000;strokeColor=#000000;strokeWidth=1;" parent="bgrbNQ1VQfj2nr2rYASx-1" source="FAvaJtrObU6wKnq1eF0G-3" edge="1">
          <mxGeometry relative="1" as="geometry">
            <mxPoint x="560" y="360" as="targetPoint" />
          </mxGeometry>
        </mxCell>
        <mxCell id="FAvaJtrObU6wKnq1eF0G-3" value="program: Whirlpool&lt;br&gt;lamports: -&lt;br&gt;data: &lt;font&gt;TickArray&lt;/font&gt;&lt;br&gt;" style="rounded=0;whiteSpace=wrap;html=1;align=left;spacingLeft=5;verticalAlign=top;fontColor=#000000;" parent="bgrbNQ1VQfj2nr2rYASx-1" vertex="1">
          <mxGeometry x="380" y="440" width="120" height="60" as="geometry" />
        </mxCell>
        <mxCell id="FAvaJtrObU6wKnq1eF0G-8" style="edgeStyle=orthogonalEdgeStyle;rounded=0;orthogonalLoop=1;jettySize=auto;html=1;exitX=0.5;exitY=0;exitDx=0;exitDy=0;entryX=0.5;entryY=1;entryDx=0;entryDy=0;fontSize=5;fontColor=#CC0000;strokeColor=#000000;strokeWidth=1;" parent="bgrbNQ1VQfj2nr2rYASx-1" source="FAvaJtrObU6wKnq1eF0G-4" target="FAvaJtrObU6wKnq1eF0G-5" edge="1">
          <mxGeometry relative="1" as="geometry" />
        </mxCell>
        <mxCell id="FAvaJtrObU6wKnq1eF0G-4" value="program: Whirlpool&lt;br&gt;lamports: -&lt;br&gt;data: &lt;font&gt;TickArray&lt;/font&gt;&lt;br&gt;" style="rounded=0;whiteSpace=wrap;html=1;align=left;spacingLeft=5;verticalAlign=top;fontColor=#000000;" parent="bgrbNQ1VQfj2nr2rYASx-1" vertex="1">
          <mxGeometry x="260" y="440" width="120" height="60" as="geometry" />
        </mxCell>
        <mxCell id="FAvaJtrObU6wKnq1eF0G-7" style="edgeStyle=orthogonalEdgeStyle;rounded=0;orthogonalLoop=1;jettySize=auto;html=1;exitX=0.5;exitY=0;exitDx=0;exitDy=0;entryX=0.5;entryY=1;entryDx=0;entryDy=0;fontSize=5;fontColor=#CC0000;strokeColor=#000000;strokeWidth=1;" parent="bgrbNQ1VQfj2nr2rYASx-1" source="FAvaJtrObU6wKnq1eF0G-5" target="FAvaJtrObU6wKnq1eF0G-6" edge="1">
          <mxGeometry relative="1" as="geometry" />
        </mxCell>
        <mxCell id="FAvaJtrObU6wKnq1eF0G-5" value="program: Whirlpool&lt;br&gt;lamports: -&lt;br&gt;data: Whirlpool" style="rounded=0;whiteSpace=wrap;html=1;align=left;spacingLeft=5;verticalAlign=top;fontColor=#000000;" parent="bgrbNQ1VQfj2nr2rYASx-1" vertex="1">
          <mxGeometry x="480" y="300" width="160" height="60" as="geometry" />
        </mxCell>
        <mxCell id="FAvaJtrObU6wKnq1eF0G-6" value="program: Whirlpool&lt;br&gt;lamports: -&lt;br&gt;data: WhirlpoolsConfig" style="rounded=0;whiteSpace=wrap;html=1;align=left;spacingLeft=5;verticalAlign=top;fontColor=#000000;" parent="bgrbNQ1VQfj2nr2rYASx-1" vertex="1">
          <mxGeometry x="480" y="180" width="160" height="60" as="geometry" />
        </mxCell>
        <mxCell id="FAvaJtrObU6wKnq1eF0G-13" value="" style="shape=flexArrow;endArrow=classic;html=1;rounded=0;fontSize=5;fontColor=#CC0000;strokeColor=#000000;strokeWidth=1;fillColor=#999999;" parent="bgrbNQ1VQfj2nr2rYASx-1" edge="1">
          <mxGeometry width="50" height="50" relative="1" as="geometry">
            <mxPoint x="585" y="550" as="sourcePoint" />
            <mxPoint x="585" y="500" as="targetPoint" />
          </mxGeometry>
        </mxCell>
        <mxCell id="FAvaJtrObU6wKnq1eF0G-14" value="&lt;font style=&quot;font-size: 12px&quot;&gt;現在の価格の位置&lt;/font&gt;" style="text;html=1;align=center;verticalAlign=middle;resizable=0;points=[];autosize=1;strokeColor=none;fillColor=none;fontSize=12;fontColor=#000000;" parent="bgrbNQ1VQfj2nr2rYASx-1" vertex="1">
          <mxGeometry x="530" y="550" width="110" height="20" as="geometry" />
        </mxCell>
        <mxCell id="bGsxvDDaFmV9U7U1dAxG-5" style="edgeStyle=orthogonalEdgeStyle;rounded=0;orthogonalLoop=1;jettySize=auto;html=1;exitX=0.5;exitY=0;exitDx=0;exitDy=0;entryX=0.5;entryY=1;entryDx=0;entryDy=0;fontSize=12;fontColor=#000000;strokeColor=#000000;strokeWidth=1;fillColor=#999999;" parent="bgrbNQ1VQfj2nr2rYASx-1" source="bGsxvDDaFmV9U7U1dAxG-4" target="FAvaJtrObU6wKnq1eF0G-5" edge="1">
          <mxGeometry relative="1" as="geometry" />
        </mxCell>
        <mxCell id="bGsxvDDaFmV9U7U1dAxG-4" value="program: Whirlpool&lt;br&gt;lamports: -&lt;br&gt;data: &lt;font&gt;TickArray&lt;/font&gt;&lt;br&gt;" style="rounded=0;whiteSpace=wrap;html=1;align=left;spacingLeft=5;verticalAlign=top;fontColor=#000000;" parent="bgrbNQ1VQfj2nr2rYASx-1" vertex="1">
          <mxGeometry x="860" y="440" width="120" height="60" as="geometry" />
        </mxCell>
        <mxCell id="bGsxvDDaFmV9U7U1dAxG-0" value="" style="rounded=1;whiteSpace=wrap;html=1;fillColor=none;strokeColor=#CC0000;strokeWidth=2;arcSize=7;dashed=1;" parent="bgrbNQ1VQfj2nr2rYASx-1" vertex="1">
          <mxGeometry x="500" y="430" width="360" height="90" as="geometry" />
        </mxCell>
        <mxCell id="bGsxvDDaFmV9U7U1dAxG-1" value="" style="rounded=1;whiteSpace=wrap;html=1;fillColor=none;strokeColor=#0000CC;strokeWidth=2;arcSize=7;dashed=1;" parent="bgrbNQ1VQfj2nr2rYASx-1" vertex="1">
          <mxGeometry x="260" y="420" width="360" height="90" as="geometry" />
        </mxCell>
        <mxCell id="qIpfTwR7Y7cUWHVLyJ33-0" value="a_to_b = false の場合" style="text;html=1;align=center;verticalAlign=middle;resizable=0;points=[];autosize=1;strokeColor=none;fillColor=none;fontSize=11;fontColor=#CC0000;" parent="bgrbNQ1VQfj2nr2rYASx-1" vertex="1">
          <mxGeometry x="680" y="520" width="120" height="20" as="geometry" />
        </mxCell>
        <mxCell id="qIpfTwR7Y7cUWHVLyJ33-1" value="a_to_b = true の場合" style="text;html=1;align=center;verticalAlign=middle;resizable=0;points=[];autosize=1;strokeColor=none;fillColor=none;fontSize=11;fontColor=#0000CC;" parent="bgrbNQ1VQfj2nr2rYASx-1" vertex="1">
          <mxGeometry x="320" y="400" width="120" height="20" as="geometry" />
        </mxCell>
      </root>
    </mxGraphModel>
  </diagram>
  <diagram name="Swap" id="tvIW5kc4VuNcGYiMV7zp">
    <mxGraphModel dx="1106" dy="1003" grid="1" gridSize="10" guides="1" tooltips="1" connect="1" arrows="1" fold="1" page="1" pageScale="1" pageWidth="1169" pageHeight="827" math="0" shadow="0">
      <root>
        <mxCell id="ckgrij_DT9gBg2y8gdPq-0" />
        <mxCell id="ckgrij_DT9gBg2y8gdPq-1" parent="ckgrij_DT9gBg2y8gdPq-0" />
        <mxCell id="ckgrij_DT9gBg2y8gdPq-15" value="program: Whirlpool&lt;br&gt;lamports: -&lt;br&gt;data: Whirlpool" style="rounded=0;whiteSpace=wrap;html=1;align=left;spacingLeft=5;verticalAlign=top;fontColor=#000000;" parent="ckgrij_DT9gBg2y8gdPq-1" vertex="1">
          <mxGeometry x="480" y="220" width="160" height="60" as="geometry" />
        </mxCell>
        <mxCell id="cHRSQPhZi3DFZSKdVLig-0" value="program: SystemProgram&lt;br&gt;lamports: 1,191,782,892&lt;br&gt;data: -" style="rounded=0;whiteSpace=wrap;html=1;align=left;spacingLeft=5;" parent="ckgrij_DT9gBg2y8gdPq-1" vertex="1">
          <mxGeometry x="480" y="680" width="160" height="60" as="geometry" />
        </mxCell>
        <mxCell id="cHRSQPhZi3DFZSKdVLig-5" value="F28e...1fmm" style="text;html=1;align=center;verticalAlign=middle;resizable=0;points=[];autosize=1;strokeColor=none;fillColor=none;" parent="ckgrij_DT9gBg2y8gdPq-1" vertex="1">
          <mxGeometry x="360" y="500" width="80" height="20" as="geometry" />
        </mxCell>
        <mxCell id="cHRSQPhZi3DFZSKdVLig-7" value="2fng...Gfm8" style="text;html=1;align=center;verticalAlign=middle;resizable=0;points=[];autosize=1;strokeColor=none;fillColor=none;" parent="ckgrij_DT9gBg2y8gdPq-1" vertex="1">
          <mxGeometry x="480" y="660" width="80" height="20" as="geometry" />
        </mxCell>
        <mxCell id="cHRSQPhZi3DFZSKdVLig-8" style="edgeStyle=orthogonalEdgeStyle;rounded=0;orthogonalLoop=1;jettySize=auto;html=1;entryX=0.5;entryY=0;entryDx=0;entryDy=0;exitX=0.5;exitY=1;exitDx=0;exitDy=0;" parent="ckgrij_DT9gBg2y8gdPq-1" source="cHRSQPhZi3DFZSKdVLig-20" target="cHRSQPhZi3DFZSKdVLig-0" edge="1">
          <mxGeometry relative="1" as="geometry">
            <mxPoint x="320" y="420" as="targetPoint" />
            <mxPoint x="270" y="570" as="sourcePoint" />
          </mxGeometry>
        </mxCell>
        <mxCell id="cHRSQPhZi3DFZSKdVLig-23" style="edgeStyle=orthogonalEdgeStyle;rounded=0;orthogonalLoop=1;jettySize=auto;html=1;exitX=0.5;exitY=1;exitDx=0;exitDy=0;entryX=0.5;entryY=0;entryDx=0;entryDy=0;fontSize=12;fontColor=#0000CC;strokeColor=#000000;strokeWidth=1;fillColor=#999999;" parent="ckgrij_DT9gBg2y8gdPq-1" source="cHRSQPhZi3DFZSKdVLig-10" target="cHRSQPhZi3DFZSKdVLig-0" edge="1">
          <mxGeometry relative="1" as="geometry" />
        </mxCell>
        <mxCell id="cHRSQPhZi3DFZSKdVLig-10" value="program: TokenProgram&lt;br&gt;lamports: -&lt;br&gt;data: &lt;font&gt;TokenAccount&lt;/font&gt;&lt;br&gt;&amp;nbsp; &amp;nbsp;mint: Jd4M...TuDa&lt;br&gt;&amp;nbsp; &amp;nbsp;owner: 2fng...Gfm8&lt;br&gt;&amp;nbsp; &amp;nbsp;amount: &lt;span style=&quot;font-size: 11px&quot;&gt;1,908,022,075,700&lt;/span&gt;" style="rounded=0;whiteSpace=wrap;html=1;align=left;spacingLeft=5;verticalAlign=top;fontColor=#000000;" parent="ckgrij_DT9gBg2y8gdPq-1" vertex="1">
          <mxGeometry x="600" y="520" width="160" height="120" as="geometry" />
        </mxCell>
        <mxCell id="cHRSQPhZi3DFZSKdVLig-11" value="EgxU...EiZ4" style="text;html=1;align=center;verticalAlign=middle;resizable=0;points=[];autosize=1;strokeColor=none;fillColor=none;" parent="ckgrij_DT9gBg2y8gdPq-1" vertex="1">
          <mxGeometry x="480" y="200" width="80" height="20" as="geometry" />
        </mxCell>
        <mxCell id="cHRSQPhZi3DFZSKdVLig-14" value="" style="endArrow=classic;html=1;rounded=0;dashed=1;dashPattern=1 1;fontSize=11;fontColor=#CC0000;strokeColor=#CC0000;strokeWidth=5;exitX=0.5;exitY=1;exitDx=0;exitDy=0;entryX=0.5;entryY=0;entryDx=0;entryDy=0;" parent="ckgrij_DT9gBg2y8gdPq-1" source="cHRSQPhZi3DFZSKdVLig-21" target="cHRSQPhZi3DFZSKdVLig-10" edge="1">
          <mxGeometry width="50" height="50" relative="1" as="geometry">
            <mxPoint x="295" y="580" as="sourcePoint" />
            <mxPoint x="235" y="450" as="targetPoint" />
          </mxGeometry>
        </mxCell>
        <mxCell id="cHRSQPhZi3DFZSKdVLig-17" value="&lt;font&gt;入力&lt;/font&gt;" style="text;html=1;align=center;verticalAlign=middle;resizable=0;points=[];autosize=1;strokeColor=none;fillColor=none;fontSize=11;fontColor=#CC0000;" parent="ckgrij_DT9gBg2y8gdPq-1" vertex="1">
          <mxGeometry x="440" y="470" width="40" height="20" as="geometry" />
        </mxCell>
        <mxCell id="cHRSQPhZi3DFZSKdVLig-20" value="program: TokenProgram&lt;br&gt;lamports: -&lt;br&gt;data: &lt;font&gt;TokenAccount&lt;/font&gt;&lt;br&gt;&amp;nbsp; &amp;nbsp;mint: BRjp...ok1k&lt;br&gt;&amp;nbsp; &amp;nbsp;owner: 2fng...Gfm8&lt;br&gt;&amp;nbsp; &amp;nbsp;amount: &lt;span style=&quot;font-size: 11px&quot;&gt;17,138,779&lt;/span&gt;" style="rounded=0;whiteSpace=wrap;html=1;align=left;spacingLeft=5;verticalAlign=top;fontColor=#000000;" parent="ckgrij_DT9gBg2y8gdPq-1" vertex="1">
          <mxGeometry x="360" y="520" width="160" height="120" as="geometry" />
        </mxCell>
        <mxCell id="cHRSQPhZi3DFZSKdVLig-25" style="edgeStyle=orthogonalEdgeStyle;rounded=0;orthogonalLoop=1;jettySize=auto;html=1;exitX=0.5;exitY=0;exitDx=0;exitDy=0;fontSize=12;fontColor=#0000CC;strokeColor=#000000;strokeWidth=1;fillColor=#999999;" parent="ckgrij_DT9gBg2y8gdPq-1" source="cHRSQPhZi3DFZSKdVLig-21" edge="1">
          <mxGeometry relative="1" as="geometry">
            <mxPoint x="560" y="280" as="targetPoint" />
          </mxGeometry>
        </mxCell>
        <mxCell id="cHRSQPhZi3DFZSKdVLig-21" value="program: TokenProgram&lt;br&gt;lamports: -&lt;br&gt;data: &lt;font&gt;TokenAccount&lt;/font&gt;&lt;br&gt;&amp;nbsp; &amp;nbsp;mint: Jd4M...TuDa&lt;br&gt;&amp;nbsp; &amp;nbsp;owner: EgxU...EiZ4&lt;br&gt;&amp;nbsp; &amp;nbsp;amount: &lt;font style=&quot;font-size: 8px&quot;&gt;29,998,904,228,801,288&lt;/font&gt;" style="rounded=0;whiteSpace=wrap;html=1;align=left;spacingLeft=5;verticalAlign=top;fontColor=#000000;" parent="ckgrij_DT9gBg2y8gdPq-1" vertex="1">
          <mxGeometry x="600" y="320" width="160" height="120" as="geometry" />
        </mxCell>
        <mxCell id="cHRSQPhZi3DFZSKdVLig-24" style="edgeStyle=orthogonalEdgeStyle;rounded=0;orthogonalLoop=1;jettySize=auto;html=1;exitX=0.5;exitY=0;exitDx=0;exitDy=0;entryX=0.5;entryY=1;entryDx=0;entryDy=0;fontSize=12;fontColor=#0000CC;strokeColor=#000000;strokeWidth=1;fillColor=#999999;" parent="ckgrij_DT9gBg2y8gdPq-1" source="cHRSQPhZi3DFZSKdVLig-22" target="ckgrij_DT9gBg2y8gdPq-15" edge="1">
          <mxGeometry relative="1" as="geometry" />
        </mxCell>
        <mxCell id="cHRSQPhZi3DFZSKdVLig-22" value="program: TokenProgram&lt;br&gt;lamports: -&lt;br&gt;data: &lt;font&gt;TokenAccount&lt;/font&gt;&lt;br&gt;&amp;nbsp; &amp;nbsp;mint: BRjp...ok1k&lt;br&gt;&amp;nbsp; &amp;nbsp;owner: EgxU...EiZ4&lt;br&gt;&amp;nbsp; &amp;nbsp;amount: &lt;span style=&quot;font-size: 11px&quot;&gt;249,468,210,645&lt;/span&gt;" style="rounded=0;whiteSpace=wrap;html=1;align=left;spacingLeft=5;verticalAlign=top;fontColor=#000000;" parent="ckgrij_DT9gBg2y8gdPq-1" vertex="1">
          <mxGeometry x="360" y="320" width="160" height="120" as="geometry" />
        </mxCell>
        <mxCell id="ClL_ePlLuHmkS-6YJp_o-0" value="2CYs...tGiH" style="text;html=1;align=center;verticalAlign=middle;resizable=0;points=[];autosize=1;strokeColor=none;fillColor=none;" parent="ckgrij_DT9gBg2y8gdPq-1" vertex="1">
          <mxGeometry x="600" y="500" width="80" height="20" as="geometry" />
        </mxCell>
        <mxCell id="ClL_ePlLuHmkS-6YJp_o-1" value="4KDu...vXTa" style="text;html=1;align=center;verticalAlign=middle;resizable=0;points=[];autosize=1;strokeColor=none;fillColor=none;" parent="ckgrij_DT9gBg2y8gdPq-1" vertex="1">
          <mxGeometry x="360" y="300" width="80" height="20" as="geometry" />
        </mxCell>
        <mxCell id="ClL_ePlLuHmkS-6YJp_o-2" value="GedZ...xMQ3" style="text;html=1;align=center;verticalAlign=middle;resizable=0;points=[];autosize=1;strokeColor=none;fillColor=none;" parent="ckgrij_DT9gBg2y8gdPq-1" vertex="1">
          <mxGeometry x="595" y="300" width="90" height="20" as="geometry" />
        </mxCell>
        <mxCell id="ClL_ePlLuHmkS-6YJp_o-4" value="" style="endArrow=classic;html=1;rounded=0;dashed=1;dashPattern=1 1;fontSize=11;fontColor=#CC0000;strokeColor=#CC0000;strokeWidth=5;exitX=0.5;exitY=0;exitDx=0;exitDy=0;entryX=0.5;entryY=1;entryDx=0;entryDy=0;" parent="ckgrij_DT9gBg2y8gdPq-1" source="cHRSQPhZi3DFZSKdVLig-20" target="cHRSQPhZi3DFZSKdVLig-22" edge="1">
          <mxGeometry width="50" height="50" relative="1" as="geometry">
            <mxPoint x="340" y="510" as="sourcePoint" />
            <mxPoint x="280" y="380" as="targetPoint" />
          </mxGeometry>
        </mxCell>
        <mxCell id="ClL_ePlLuHmkS-6YJp_o-5" value="&lt;font&gt;出力&lt;/font&gt;" style="text;html=1;align=center;verticalAlign=middle;resizable=0;points=[];autosize=1;strokeColor=none;fillColor=none;fontSize=11;fontColor=#CC0000;" parent="ckgrij_DT9gBg2y8gdPq-1" vertex="1">
          <mxGeometry x="640" y="470" width="40" height="20" as="geometry" />
        </mxCell>
        <mxCell id="cbZ4JBM9WsA31rowBzmH-0" value="" style="rounded=1;whiteSpace=wrap;html=1;fillColor=none;strokeColor=#b85450;strokeWidth=2;arcSize=7;dashed=1;" parent="ckgrij_DT9gBg2y8gdPq-1" vertex="1">
          <mxGeometry x="590" y="500" width="179" height="150" as="geometry" />
        </mxCell>
        <mxCell id="cbZ4JBM9WsA31rowBzmH-1" value="&lt;font&gt;存在しない場合は作成&lt;/font&gt;" style="text;html=1;align=center;verticalAlign=middle;resizable=0;points=[];autosize=1;strokeColor=none;fillColor=none;fontSize=11;fontColor=#CC0000;" parent="ckgrij_DT9gBg2y8gdPq-1" vertex="1">
          <mxGeometry x="614.5" y="660" width="130" height="20" as="geometry" />
        </mxCell>
      </root>
    </mxGraphModel>
  </diagram>
  <diagram id="9qpUFmTmNZt-_V23OTwc" name="range">
    <mxGraphModel dx="1106" dy="1003" grid="1" gridSize="10" guides="1" tooltips="1" connect="1" arrows="1" fold="1" page="1" pageScale="1" pageWidth="1169" pageHeight="827" math="0" shadow="0">
      <root>
        <mxCell id="8WW9tOOhlmdvWOTFopA0-0" />
        <mxCell id="8WW9tOOhlmdvWOTFopA0-1" parent="8WW9tOOhlmdvWOTFopA0-0" />
        <mxCell id="8WW9tOOhlmdvWOTFopA0-2" value="" style="endArrow=classic;startArrow=classic;html=1;rounded=0;fontSize=8;fontColor=#0000CC;strokeColor=#000000;strokeWidth=1;fillColor=#999999;" parent="8WW9tOOhlmdvWOTFopA0-1" edge="1">
          <mxGeometry width="50" height="50" relative="1" as="geometry">
            <mxPoint x="280" y="360" as="sourcePoint" />
            <mxPoint x="680" y="360" as="targetPoint" />
          </mxGeometry>
        </mxCell>
        <mxCell id="8WW9tOOhlmdvWOTFopA0-4" value="" style="endArrow=none;html=1;rounded=0;fontSize=12;fontColor=#000000;strokeColor=#CC0000;strokeWidth=2;fillColor=#999999;dashed=1;dashPattern=1 1;" parent="8WW9tOOhlmdvWOTFopA0-1" edge="1">
          <mxGeometry width="50" height="50" relative="1" as="geometry">
            <mxPoint x="480" y="371" as="sourcePoint" />
            <mxPoint x="480" y="200" as="targetPoint" />
          </mxGeometry>
        </mxCell>
        <mxCell id="8WW9tOOhlmdvWOTFopA0-5" value="devSAMO値上がり&lt;br&gt;(devUSDC値下がり)" style="text;html=1;align=center;verticalAlign=middle;resizable=0;points=[];autosize=1;strokeColor=none;fillColor=none;fontSize=12;fontColor=#000000;" parent="8WW9tOOhlmdvWOTFopA0-1" vertex="1">
          <mxGeometry x="560" y="370" width="120" height="30" as="geometry" />
        </mxCell>
        <mxCell id="8WW9tOOhlmdvWOTFopA0-6" value="devSAMO値下がり&lt;br&gt;(devUSDC値上がり)" style="text;html=1;align=center;verticalAlign=middle;resizable=0;points=[];autosize=1;strokeColor=none;fillColor=none;fontSize=12;fontColor=#000000;" parent="8WW9tOOhlmdvWOTFopA0-1" vertex="1">
          <mxGeometry x="280" y="370" width="120" height="30" as="geometry" />
        </mxCell>
        <mxCell id="8WW9tOOhlmdvWOTFopA0-7" value="現在価格" style="text;html=1;align=center;verticalAlign=middle;resizable=0;points=[];autosize=1;strokeColor=none;fillColor=none;fontSize=12;fontColor=#000000;" parent="8WW9tOOhlmdvWOTFopA0-1" vertex="1">
          <mxGeometry x="450" y="370" width="60" height="20" as="geometry" />
        </mxCell>
        <mxCell id="8WW9tOOhlmdvWOTFopA0-8" value="" style="rounded=0;whiteSpace=wrap;html=1;fontSize=12;fontColor=#000000;strokeColor=#000000;strokeWidth=1;fillColor=none;" parent="8WW9tOOhlmdvWOTFopA0-1" vertex="1">
          <mxGeometry x="420" y="240" width="120" height="120" as="geometry" />
        </mxCell>
        <mxCell id="8WW9tOOhlmdvWOTFopA0-11" value="devSAMO" style="rounded=1;whiteSpace=wrap;html=1;fontSize=10;strokeColor=#82b366;strokeWidth=1;fillColor=#d5e8d4;" parent="8WW9tOOhlmdvWOTFopA0-1" vertex="1">
          <mxGeometry x="486" y="245" width="50" height="110" as="geometry" />
        </mxCell>
        <mxCell id="8WW9tOOhlmdvWOTFopA0-12" value="devUSDC" style="rounded=1;whiteSpace=wrap;html=1;fontSize=10;strokeColor=#6c8ebf;strokeWidth=1;fillColor=#dae8fc;" parent="8WW9tOOhlmdvWOTFopA0-1" vertex="1">
          <mxGeometry x="425" y="245" width="50" height="110" as="geometry" />
        </mxCell>
        <mxCell id="8WW9tOOhlmdvWOTFopA0-13" value="" style="rounded=0;whiteSpace=wrap;html=1;fontSize=12;fontColor=#000000;strokeColor=#000000;strokeWidth=1;fillColor=none;" parent="8WW9tOOhlmdvWOTFopA0-1" vertex="1">
          <mxGeometry x="320" y="240" width="60" height="120" as="geometry" />
        </mxCell>
        <mxCell id="8WW9tOOhlmdvWOTFopA0-15" value="" style="rounded=0;whiteSpace=wrap;html=1;fontSize=12;fontColor=#000000;strokeColor=#000000;strokeWidth=1;fillColor=none;" parent="8WW9tOOhlmdvWOTFopA0-1" vertex="1">
          <mxGeometry x="580" y="240" width="60" height="120" as="geometry" />
        </mxCell>
        <mxCell id="8WW9tOOhlmdvWOTFopA0-16" value="devSAMO" style="rounded=1;whiteSpace=wrap;html=1;fontSize=10;strokeColor=#82b366;strokeWidth=1;fillColor=#d5e8d4;" parent="8WW9tOOhlmdvWOTFopA0-1" vertex="1">
          <mxGeometry x="585" y="245" width="50" height="110" as="geometry" />
        </mxCell>
        <mxCell id="8WW9tOOhlmdvWOTFopA0-17" value="devUSDC" style="rounded=1;whiteSpace=wrap;html=1;fontSize=10;strokeColor=#6c8ebf;strokeWidth=1;fillColor=#dae8fc;" parent="8WW9tOOhlmdvWOTFopA0-1" vertex="1">
          <mxGeometry x="325" y="245" width="50" height="110" as="geometry" />
        </mxCell>
        <mxCell id="8WW9tOOhlmdvWOTFopA0-18" value="上限 ≦ 現在価格" style="text;html=1;align=center;verticalAlign=middle;resizable=0;points=[];autosize=1;strokeColor=none;fillColor=none;fontSize=12;fontColor=#000000;" parent="8WW9tOOhlmdvWOTFopA0-1" vertex="1">
          <mxGeometry x="300" y="220" width="100" height="20" as="geometry" />
        </mxCell>
        <mxCell id="8WW9tOOhlmdvWOTFopA0-19" value="現在価格 ≦ 下限" style="text;html=1;align=center;verticalAlign=middle;resizable=0;points=[];autosize=1;strokeColor=none;fillColor=none;fontSize=12;fontColor=#000000;" parent="8WW9tOOhlmdvWOTFopA0-1" vertex="1">
          <mxGeometry x="560" y="220" width="100" height="20" as="geometry" />
        </mxCell>
        <mxCell id="8WW9tOOhlmdvWOTFopA0-21" value="下限 ≦ 現在価格 ≦ 上限" style="text;html=1;align=center;verticalAlign=middle;resizable=0;points=[];autosize=1;strokeColor=none;fillColor=none;fontSize=12;fontColor=#000000;" parent="8WW9tOOhlmdvWOTFopA0-1" vertex="1">
          <mxGeometry x="410" y="220" width="140" height="20" as="geometry" />
        </mxCell>
      </root>
    </mxGraphModel>
  </diagram>
  <diagram name="listPosition" id="x-UtCkPTgXBlKsrhZ3IQ">
    <mxGraphModel dx="1106" dy="1003" grid="1" gridSize="10" guides="1" tooltips="1" connect="1" arrows="1" fold="1" page="1" pageScale="1" pageWidth="1169" pageHeight="827" math="0" shadow="0">
      <root>
        <mxCell id="k2VJt3zwRZMqGdJ9inP7-0" />
        <mxCell id="k2VJt3zwRZMqGdJ9inP7-1" parent="k2VJt3zwRZMqGdJ9inP7-0" />
        <mxCell id="6vO-S58JB91IA6sU4H-v-5" value="" style="rounded=1;whiteSpace=wrap;html=1;fillColor=none;strokeColor=#b85450;strokeWidth=2;arcSize=7;dashed=1;" parent="k2VJt3zwRZMqGdJ9inP7-1" vertex="1">
          <mxGeometry x="300" y="610" width="520" height="170" as="geometry" />
        </mxCell>
        <mxCell id="k2VJt3zwRZMqGdJ9inP7-2" value="" style="rounded=1;whiteSpace=wrap;html=1;fillColor=none;strokeColor=#b85450;strokeWidth=2;arcSize=7;dashed=1;" parent="k2VJt3zwRZMqGdJ9inP7-1" vertex="1">
          <mxGeometry x="300" y="210" width="520" height="170" as="geometry" />
        </mxCell>
        <mxCell id="k2VJt3zwRZMqGdJ9inP7-3" value="program: SystemProgram&lt;br&gt;lamports: 1,191,782,892&lt;br&gt;data: -" style="rounded=0;whiteSpace=wrap;html=1;align=left;spacingLeft=5;" parent="k2VJt3zwRZMqGdJ9inP7-1" vertex="1">
          <mxGeometry x="400" y="100" width="160" height="60" as="geometry" />
        </mxCell>
        <mxCell id="k2VJt3zwRZMqGdJ9inP7-4" style="edgeStyle=orthogonalEdgeStyle;rounded=0;orthogonalLoop=1;jettySize=auto;html=1;exitX=0.5;exitY=1;exitDx=0;exitDy=0;entryX=0.5;entryY=0;entryDx=0;entryDy=0;" parent="k2VJt3zwRZMqGdJ9inP7-1" source="k2VJt3zwRZMqGdJ9inP7-6" target="k2VJt3zwRZMqGdJ9inP7-7" edge="1">
          <mxGeometry relative="1" as="geometry">
            <mxPoint x="430" y="410" as="targetPoint" />
          </mxGeometry>
        </mxCell>
        <mxCell id="k2VJt3zwRZMqGdJ9inP7-5" style="edgeStyle=orthogonalEdgeStyle;rounded=0;orthogonalLoop=1;jettySize=auto;html=1;exitX=0.5;exitY=0;exitDx=0;exitDy=0;entryX=0.5;entryY=1;entryDx=0;entryDy=0;" parent="k2VJt3zwRZMqGdJ9inP7-1" source="k2VJt3zwRZMqGdJ9inP7-6" target="k2VJt3zwRZMqGdJ9inP7-3" edge="1">
          <mxGeometry relative="1" as="geometry" />
        </mxCell>
        <mxCell id="k2VJt3zwRZMqGdJ9inP7-6" value="program: TokenProgram&lt;br&gt;lamports: -&lt;br&gt;data: &lt;font&gt;TokenAccount&lt;/font&gt;&lt;br&gt;&amp;nbsp; &amp;nbsp;mint: HAsv...dRD7&lt;br&gt;&amp;nbsp; &amp;nbsp;owner: &lt;font&gt;2fng...Gfm8&lt;/font&gt;&lt;br&gt;&amp;nbsp; &amp;nbsp;amount: 1" style="rounded=0;whiteSpace=wrap;html=1;align=left;spacingLeft=5;verticalAlign=top;fontColor=#000000;" parent="k2VJt3zwRZMqGdJ9inP7-1" vertex="1">
          <mxGeometry x="320" y="240" width="160" height="120" as="geometry" />
        </mxCell>
        <mxCell id="6vO-S58JB91IA6sU4H-v-1" style="edgeStyle=orthogonalEdgeStyle;rounded=0;orthogonalLoop=1;jettySize=auto;html=1;exitX=0.5;exitY=1;exitDx=0;exitDy=0;entryX=0.5;entryY=0;entryDx=0;entryDy=0;dashed=1;dashPattern=1 1;fontSize=10;fontColor=#000000;strokeColor=#CC0000;strokeWidth=2;fillColor=#999999;" parent="k2VJt3zwRZMqGdJ9inP7-1" source="k2VJt3zwRZMqGdJ9inP7-7" target="6vO-S58JB91IA6sU4H-v-0" edge="1">
          <mxGeometry relative="1" as="geometry" />
        </mxCell>
        <mxCell id="k2VJt3zwRZMqGdJ9inP7-7" value="program: TokenProgram&lt;br&gt;lamports: -&lt;br&gt;data: Mint&lt;br&gt;&amp;nbsp; &amp;nbsp;decimals: 0&lt;br&gt;&amp;nbsp; &amp;nbsp;supply: 1&lt;br&gt;&amp;nbsp; &amp;nbsp;mint_authority: xxx...xxx" style="rounded=0;whiteSpace=wrap;html=1;align=left;spacingLeft=5;verticalAlign=top;" parent="k2VJt3zwRZMqGdJ9inP7-1" vertex="1">
          <mxGeometry x="320" y="440" width="160" height="120" as="geometry" />
        </mxCell>
        <mxCell id="k2VJt3zwRZMqGdJ9inP7-8" value="HAsv...dRD7" style="text;html=1;align=center;verticalAlign=middle;resizable=0;points=[];autosize=1;strokeColor=none;fillColor=none;" parent="k2VJt3zwRZMqGdJ9inP7-1" vertex="1">
          <mxGeometry x="320" y="420" width="80" height="20" as="geometry" />
        </mxCell>
        <mxCell id="k2VJt3zwRZMqGdJ9inP7-9" value="9nTR...3pxp" style="text;html=1;align=center;verticalAlign=middle;resizable=0;points=[];autosize=1;strokeColor=none;fillColor=none;" parent="k2VJt3zwRZMqGdJ9inP7-1" vertex="1">
          <mxGeometry x="320" y="220" width="80" height="20" as="geometry" />
        </mxCell>
        <mxCell id="k2VJt3zwRZMqGdJ9inP7-10" value="2fng...Gfm8" style="text;html=1;align=center;verticalAlign=middle;resizable=0;points=[];autosize=1;strokeColor=none;fillColor=none;" parent="k2VJt3zwRZMqGdJ9inP7-1" vertex="1">
          <mxGeometry x="400" y="80" width="80" height="20" as="geometry" />
        </mxCell>
        <mxCell id="k2VJt3zwRZMqGdJ9inP7-11" style="edgeStyle=orthogonalEdgeStyle;rounded=0;orthogonalLoop=1;jettySize=auto;html=1;exitX=0.5;exitY=1;exitDx=0;exitDy=0;entryX=0.5;entryY=0;entryDx=0;entryDy=0;" parent="k2VJt3zwRZMqGdJ9inP7-1" source="k2VJt3zwRZMqGdJ9inP7-13" target="k2VJt3zwRZMqGdJ9inP7-14" edge="1">
          <mxGeometry relative="1" as="geometry" />
        </mxCell>
        <mxCell id="k2VJt3zwRZMqGdJ9inP7-12" style="edgeStyle=orthogonalEdgeStyle;rounded=0;orthogonalLoop=1;jettySize=auto;html=1;exitX=0.5;exitY=0;exitDx=0;exitDy=0;entryX=0.5;entryY=1;entryDx=0;entryDy=0;" parent="k2VJt3zwRZMqGdJ9inP7-1" source="k2VJt3zwRZMqGdJ9inP7-13" target="k2VJt3zwRZMqGdJ9inP7-3" edge="1">
          <mxGeometry relative="1" as="geometry">
            <mxPoint x="480" y="180" as="targetPoint" />
          </mxGeometry>
        </mxCell>
        <mxCell id="k2VJt3zwRZMqGdJ9inP7-13" value="program: TokenProgram&lt;br&gt;lamports: -&lt;br&gt;data: &lt;font&gt;TokenAccount&lt;/font&gt;&lt;br&gt;&amp;nbsp; &amp;nbsp;mint: Akbq...QzHG&lt;br&gt;&amp;nbsp; &amp;nbsp;owner: &lt;font&gt;2fng...Gfm8&lt;/font&gt;&lt;br&gt;&amp;nbsp; &amp;nbsp;amount: 1" style="rounded=0;whiteSpace=wrap;html=1;align=left;spacingLeft=5;verticalAlign=top;fontColor=#000000;" parent="k2VJt3zwRZMqGdJ9inP7-1" vertex="1">
          <mxGeometry x="560" y="240" width="160" height="120" as="geometry" />
        </mxCell>
        <mxCell id="6vO-S58JB91IA6sU4H-v-2" style="edgeStyle=orthogonalEdgeStyle;rounded=0;orthogonalLoop=1;jettySize=auto;html=1;exitX=0.5;exitY=1;exitDx=0;exitDy=0;entryX=0.5;entryY=0;entryDx=0;entryDy=0;dashed=1;dashPattern=1 1;fontSize=10;fontColor=#000000;strokeColor=#CC0000;strokeWidth=2;fillColor=#999999;" parent="k2VJt3zwRZMqGdJ9inP7-1" source="k2VJt3zwRZMqGdJ9inP7-14" target="k2VJt3zwRZMqGdJ9inP7-21" edge="1">
          <mxGeometry relative="1" as="geometry" />
        </mxCell>
        <mxCell id="k2VJt3zwRZMqGdJ9inP7-14" value="program: TokenProgram&lt;br&gt;lamports: -&lt;br&gt;data: Mint&lt;br&gt;&amp;nbsp; &amp;nbsp;decimals: 0&lt;br&gt;&amp;nbsp; &amp;nbsp;supply: 1&lt;br&gt;&amp;nbsp; &amp;nbsp;mint_authority: xxx...xxx" style="rounded=0;whiteSpace=wrap;html=1;align=left;spacingLeft=5;verticalAlign=top;" parent="k2VJt3zwRZMqGdJ9inP7-1" vertex="1">
          <mxGeometry x="560" y="440" width="160" height="120" as="geometry" />
        </mxCell>
        <mxCell id="k2VJt3zwRZMqGdJ9inP7-15" value="Akbq...QzHG" style="text;html=1;align=center;verticalAlign=middle;resizable=0;points=[];autosize=1;strokeColor=none;fillColor=none;" parent="k2VJt3zwRZMqGdJ9inP7-1" vertex="1">
          <mxGeometry x="555" y="420" width="90" height="20" as="geometry" />
        </mxCell>
        <mxCell id="k2VJt3zwRZMqGdJ9inP7-16" value="HX58...6ZMA" style="text;html=1;align=center;verticalAlign=middle;resizable=0;points=[];autosize=1;strokeColor=none;fillColor=none;" parent="k2VJt3zwRZMqGdJ9inP7-1" vertex="1">
          <mxGeometry x="555" y="220" width="90" height="20" as="geometry" />
        </mxCell>
        <mxCell id="k2VJt3zwRZMqGdJ9inP7-17" value="" style="endArrow=none;html=1;rounded=0;strokeWidth=5;dashed=1;dashPattern=1 1;strokeColor=#999999;" parent="k2VJt3zwRZMqGdJ9inP7-1" edge="1">
          <mxGeometry width="50" height="50" relative="1" as="geometry">
            <mxPoint x="750" y="299.5" as="sourcePoint" />
            <mxPoint x="810" y="299.5" as="targetPoint" />
          </mxGeometry>
        </mxCell>
        <mxCell id="k2VJt3zwRZMqGdJ9inP7-18" value="" style="endArrow=none;html=1;rounded=0;strokeWidth=5;dashed=1;dashPattern=1 1;strokeColor=#999999;" parent="k2VJt3zwRZMqGdJ9inP7-1" edge="1">
          <mxGeometry width="50" height="50" relative="1" as="geometry">
            <mxPoint x="750" y="500" as="sourcePoint" />
            <mxPoint x="810" y="500" as="targetPoint" />
          </mxGeometry>
        </mxCell>
        <mxCell id="k2VJt3zwRZMqGdJ9inP7-19" value="getTokenAccountsByOwner() が返すアカウント" style="text;html=1;strokeColor=none;fillColor=none;align=center;verticalAlign=middle;whiteSpace=wrap;rounded=0;fontColor=#CC0000;" parent="k2VJt3zwRZMqGdJ9inP7-1" vertex="1">
          <mxGeometry x="550" y="177" width="260" height="30" as="geometry" />
        </mxCell>
        <mxCell id="k2VJt3zwRZMqGdJ9inP7-21" value="program: Whirlpool&lt;br&gt;lamports: -&lt;br&gt;data: Position&lt;br&gt;&amp;nbsp; &amp;nbsp;whirlpool: EgxU...EiZ4&lt;br&gt;&amp;nbsp; &amp;nbsp;position_mint: &lt;font style=&quot;font-size: 10px&quot;&gt;Akbq...QzHG&lt;/font&gt;&lt;br&gt;&amp;nbsp; &amp;nbsp;tick_lower_index: xxx&lt;br&gt;&amp;nbsp; &amp;nbsp;tick_upper_index: xxx&lt;br&gt;&amp;nbsp; &amp;nbsp;liquidity: xxx" style="rounded=0;whiteSpace=wrap;html=1;align=left;spacingLeft=5;verticalAlign=top;" parent="k2VJt3zwRZMqGdJ9inP7-1" vertex="1">
          <mxGeometry x="560" y="640" width="160" height="130" as="geometry" />
        </mxCell>
        <mxCell id="6vO-S58JB91IA6sU4H-v-0" value="program: Whirlpool&lt;br&gt;lamports: -&lt;br&gt;data: Position&lt;br&gt;&amp;nbsp; &amp;nbsp;whirlpool: EgxU...EiZ4&lt;br&gt;&amp;nbsp; &amp;nbsp;position_mint: &lt;font style=&quot;font-size: 10px&quot;&gt;HAsv...dRD7&lt;/font&gt;&lt;br&gt;&amp;nbsp; &amp;nbsp;tick_lower_index: xxx&lt;br&gt;&amp;nbsp; &amp;nbsp;tick_upper_index: xxx&lt;br&gt;&amp;nbsp; &amp;nbsp;liquidity: xxx" style="rounded=0;whiteSpace=wrap;html=1;align=left;spacingLeft=5;verticalAlign=top;" parent="k2VJt3zwRZMqGdJ9inP7-1" vertex="1">
          <mxGeometry x="320" y="640" width="160" height="130" as="geometry" />
        </mxCell>
        <mxCell id="6vO-S58JB91IA6sU4H-v-3" value="6v6y...zxZx" style="text;html=1;align=center;verticalAlign=middle;resizable=0;points=[];autosize=1;strokeColor=none;fillColor=none;" parent="k2VJt3zwRZMqGdJ9inP7-1" vertex="1">
          <mxGeometry x="320" y="620" width="80" height="20" as="geometry" />
        </mxCell>
        <mxCell id="6vO-S58JB91IA6sU4H-v-4" value="C3ie...t6mc" style="text;html=1;align=center;verticalAlign=middle;resizable=0;points=[];autosize=1;strokeColor=none;fillColor=none;" parent="k2VJt3zwRZMqGdJ9inP7-1" vertex="1">
          <mxGeometry x="560" y="620" width="80" height="20" as="geometry" />
        </mxCell>
        <mxCell id="6vO-S58JB91IA6sU4H-v-6" value="PDAUtil.getPosition による導出" style="text;html=1;strokeColor=none;fillColor=none;align=right;verticalAlign=middle;whiteSpace=wrap;rounded=0;fontColor=#CC0000;" parent="k2VJt3zwRZMqGdJ9inP7-1" vertex="1">
          <mxGeometry x="560" y="580" width="260" height="30" as="geometry" />
        </mxCell>
      </root>
    </mxGraphModel>
  </diagram>
  <diagram name="Collect" id="VYqA-s4LW0z3dK5S1xmm">
    <mxGraphModel dx="1106" dy="1003" grid="1" gridSize="10" guides="1" tooltips="1" connect="1" arrows="1" fold="1" page="1" pageScale="1" pageWidth="1169" pageHeight="827" math="0" shadow="0">
      <root>
        <mxCell id="Ft1x8JzmgaebfKrd6yLu-0" />
        <mxCell id="Ft1x8JzmgaebfKrd6yLu-1" parent="Ft1x8JzmgaebfKrd6yLu-0" />
        <mxCell id="Ft1x8JzmgaebfKrd6yLu-2" value="program: Whirlpool&lt;br&gt;lamports: -&lt;br&gt;data: Whirlpool" style="rounded=0;whiteSpace=wrap;html=1;align=left;spacingLeft=5;verticalAlign=top;fontColor=#000000;" parent="Ft1x8JzmgaebfKrd6yLu-1" vertex="1">
          <mxGeometry x="480" y="220" width="160" height="60" as="geometry" />
        </mxCell>
        <mxCell id="Ft1x8JzmgaebfKrd6yLu-3" value="program: SystemProgram&lt;br&gt;lamports: 1,191,782,892&lt;br&gt;data: -" style="rounded=0;whiteSpace=wrap;html=1;align=left;spacingLeft=5;" parent="Ft1x8JzmgaebfKrd6yLu-1" vertex="1">
          <mxGeometry x="480" y="680" width="160" height="60" as="geometry" />
        </mxCell>
        <mxCell id="Ft1x8JzmgaebfKrd6yLu-4" value="F28e...1fmm" style="text;html=1;align=center;verticalAlign=middle;resizable=0;points=[];autosize=1;strokeColor=none;fillColor=none;" parent="Ft1x8JzmgaebfKrd6yLu-1" vertex="1">
          <mxGeometry x="360" y="500" width="80" height="20" as="geometry" />
        </mxCell>
        <mxCell id="Ft1x8JzmgaebfKrd6yLu-5" value="2fng...Gfm8" style="text;html=1;align=center;verticalAlign=middle;resizable=0;points=[];autosize=1;strokeColor=none;fillColor=none;" parent="Ft1x8JzmgaebfKrd6yLu-1" vertex="1">
          <mxGeometry x="480" y="660" width="80" height="20" as="geometry" />
        </mxCell>
        <mxCell id="Ft1x8JzmgaebfKrd6yLu-6" style="edgeStyle=orthogonalEdgeStyle;rounded=0;orthogonalLoop=1;jettySize=auto;html=1;entryX=0.5;entryY=0;entryDx=0;entryDy=0;exitX=0.5;exitY=1;exitDx=0;exitDy=0;" parent="Ft1x8JzmgaebfKrd6yLu-1" source="Ft1x8JzmgaebfKrd6yLu-12" target="Ft1x8JzmgaebfKrd6yLu-3" edge="1">
          <mxGeometry relative="1" as="geometry">
            <mxPoint x="320" y="420" as="targetPoint" />
            <mxPoint x="270" y="570" as="sourcePoint" />
          </mxGeometry>
        </mxCell>
        <mxCell id="Ft1x8JzmgaebfKrd6yLu-7" style="edgeStyle=orthogonalEdgeStyle;rounded=0;orthogonalLoop=1;jettySize=auto;html=1;exitX=0.5;exitY=1;exitDx=0;exitDy=0;entryX=0.5;entryY=0;entryDx=0;entryDy=0;fontSize=12;fontColor=#0000CC;strokeColor=#000000;strokeWidth=1;fillColor=#999999;" parent="Ft1x8JzmgaebfKrd6yLu-1" source="Ft1x8JzmgaebfKrd6yLu-8" target="Ft1x8JzmgaebfKrd6yLu-3" edge="1">
          <mxGeometry relative="1" as="geometry" />
        </mxCell>
        <mxCell id="Ft1x8JzmgaebfKrd6yLu-8" value="program: TokenProgram&lt;br&gt;lamports: -&lt;br&gt;data: &lt;font&gt;TokenAccount&lt;/font&gt;&lt;br&gt;&amp;nbsp; &amp;nbsp;mint: Jd4M...TuDa&lt;br&gt;&amp;nbsp; &amp;nbsp;owner: 2fng...Gfm8&lt;br&gt;&amp;nbsp; &amp;nbsp;amount: &lt;span style=&quot;font-size: 11px&quot;&gt;1,908,022,075,700&lt;/span&gt;" style="rounded=0;whiteSpace=wrap;html=1;align=left;spacingLeft=5;verticalAlign=top;fontColor=#000000;" parent="Ft1x8JzmgaebfKrd6yLu-1" vertex="1">
          <mxGeometry x="560" y="520" width="160" height="120" as="geometry" />
        </mxCell>
        <mxCell id="Ft1x8JzmgaebfKrd6yLu-9" value="EgxU...EiZ4" style="text;html=1;align=center;verticalAlign=middle;resizable=0;points=[];autosize=1;strokeColor=none;fillColor=none;" parent="Ft1x8JzmgaebfKrd6yLu-1" vertex="1">
          <mxGeometry x="480" y="200" width="80" height="20" as="geometry" />
        </mxCell>
        <mxCell id="Ft1x8JzmgaebfKrd6yLu-10" value="" style="endArrow=classic;html=1;rounded=0;dashed=1;dashPattern=1 1;fontSize=11;fontColor=#CC0000;strokeColor=#CC0000;strokeWidth=5;exitX=0.5;exitY=1;exitDx=0;exitDy=0;entryX=0.5;entryY=0;entryDx=0;entryDy=0;" parent="Ft1x8JzmgaebfKrd6yLu-1" source="Ft1x8JzmgaebfKrd6yLu-14" target="Ft1x8JzmgaebfKrd6yLu-8" edge="1">
          <mxGeometry width="50" height="50" relative="1" as="geometry">
            <mxPoint x="255" y="580" as="sourcePoint" />
            <mxPoint x="195" y="450" as="targetPoint" />
          </mxGeometry>
        </mxCell>
        <mxCell id="Ft1x8JzmgaebfKrd6yLu-12" value="program: TokenProgram&lt;br&gt;lamports: -&lt;br&gt;data: &lt;font&gt;TokenAccount&lt;/font&gt;&lt;br&gt;&amp;nbsp; &amp;nbsp;mint: BRjp...ok1k&lt;br&gt;&amp;nbsp; &amp;nbsp;owner: 2fng...Gfm8&lt;br&gt;&amp;nbsp; &amp;nbsp;amount: &lt;span style=&quot;font-size: 11px&quot;&gt;17,138,779&lt;/span&gt;" style="rounded=0;whiteSpace=wrap;html=1;align=left;spacingLeft=5;verticalAlign=top;fontColor=#000000;" parent="Ft1x8JzmgaebfKrd6yLu-1" vertex="1">
          <mxGeometry x="360" y="520" width="160" height="120" as="geometry" />
        </mxCell>
        <mxCell id="Ft1x8JzmgaebfKrd6yLu-13" style="edgeStyle=orthogonalEdgeStyle;rounded=0;orthogonalLoop=1;jettySize=auto;html=1;exitX=0.5;exitY=0;exitDx=0;exitDy=0;fontSize=12;fontColor=#0000CC;strokeColor=#000000;strokeWidth=1;fillColor=#999999;" parent="Ft1x8JzmgaebfKrd6yLu-1" source="Ft1x8JzmgaebfKrd6yLu-14" edge="1">
          <mxGeometry relative="1" as="geometry">
            <mxPoint x="560" y="280" as="targetPoint" />
          </mxGeometry>
        </mxCell>
        <mxCell id="Ft1x8JzmgaebfKrd6yLu-14" value="program: TokenProgram&lt;br&gt;lamports: -&lt;br&gt;data: &lt;font&gt;TokenAccount&lt;/font&gt;&lt;br&gt;&amp;nbsp; &amp;nbsp;mint: Jd4M...TuDa&lt;br&gt;&amp;nbsp; &amp;nbsp;owner: EgxU...EiZ4&lt;br&gt;&amp;nbsp; &amp;nbsp;amount: &lt;font style=&quot;font-size: 8px&quot;&gt;30,063,579.614451434&lt;/font&gt;" style="rounded=0;whiteSpace=wrap;html=1;align=left;spacingLeft=5;verticalAlign=top;fontColor=#000000;" parent="Ft1x8JzmgaebfKrd6yLu-1" vertex="1">
          <mxGeometry x="560" y="320" width="160" height="120" as="geometry" />
        </mxCell>
        <mxCell id="Ft1x8JzmgaebfKrd6yLu-15" style="edgeStyle=orthogonalEdgeStyle;rounded=0;orthogonalLoop=1;jettySize=auto;html=1;exitX=0.5;exitY=0;exitDx=0;exitDy=0;entryX=0.5;entryY=1;entryDx=0;entryDy=0;fontSize=12;fontColor=#0000CC;strokeColor=#000000;strokeWidth=1;fillColor=#999999;" parent="Ft1x8JzmgaebfKrd6yLu-1" source="Ft1x8JzmgaebfKrd6yLu-16" target="Ft1x8JzmgaebfKrd6yLu-2" edge="1">
          <mxGeometry relative="1" as="geometry" />
        </mxCell>
        <mxCell id="Ft1x8JzmgaebfKrd6yLu-16" value="program: TokenProgram&lt;br&gt;lamports: -&lt;br&gt;data: &lt;font&gt;TokenAccount&lt;/font&gt;&lt;br&gt;&amp;nbsp; &amp;nbsp;mint: BRjp...ok1k&lt;br&gt;&amp;nbsp; &amp;nbsp;owner: EgxU...EiZ4&lt;br&gt;&amp;nbsp; &amp;nbsp;amount: &lt;span style=&quot;font-size: 11px&quot;&gt;249,380.655452&lt;/span&gt;" style="rounded=0;whiteSpace=wrap;html=1;align=left;spacingLeft=5;verticalAlign=top;fontColor=#000000;" parent="Ft1x8JzmgaebfKrd6yLu-1" vertex="1">
          <mxGeometry x="360" y="320" width="160" height="120" as="geometry" />
        </mxCell>
        <mxCell id="Ft1x8JzmgaebfKrd6yLu-17" value="2CYs...tGiH" style="text;html=1;align=center;verticalAlign=middle;resizable=0;points=[];autosize=1;strokeColor=none;fillColor=none;" parent="Ft1x8JzmgaebfKrd6yLu-1" vertex="1">
          <mxGeometry x="560" y="500" width="80" height="20" as="geometry" />
        </mxCell>
        <mxCell id="Ft1x8JzmgaebfKrd6yLu-18" value="4KDu...vXTa" style="text;html=1;align=center;verticalAlign=middle;resizable=0;points=[];autosize=1;strokeColor=none;fillColor=none;" parent="Ft1x8JzmgaebfKrd6yLu-1" vertex="1">
          <mxGeometry x="360" y="300" width="80" height="20" as="geometry" />
        </mxCell>
        <mxCell id="Ft1x8JzmgaebfKrd6yLu-19" value="GedZ...xMQ3" style="text;html=1;align=center;verticalAlign=middle;resizable=0;points=[];autosize=1;strokeColor=none;fillColor=none;" parent="Ft1x8JzmgaebfKrd6yLu-1" vertex="1">
          <mxGeometry x="555" y="300" width="90" height="20" as="geometry" />
        </mxCell>
        <mxCell id="Ft1x8JzmgaebfKrd6yLu-21" value="&lt;font&gt;手数料回収&lt;/font&gt;" style="text;html=1;align=center;verticalAlign=middle;resizable=0;points=[];autosize=1;strokeColor=none;fillColor=none;fontSize=11;fontColor=#CC0000;" parent="Ft1x8JzmgaebfKrd6yLu-1" vertex="1">
          <mxGeometry x="570" y="450" width="70" height="20" as="geometry" />
        </mxCell>
        <mxCell id="Ft1x8JzmgaebfKrd6yLu-40" style="edgeStyle=orthogonalEdgeStyle;rounded=0;orthogonalLoop=1;jettySize=auto;html=1;exitX=0.5;exitY=1;exitDx=0;exitDy=0;entryX=0.5;entryY=0;entryDx=0;entryDy=0;fontSize=10;fontColor=#000000;" parent="Ft1x8JzmgaebfKrd6yLu-1" source="Ft1x8JzmgaebfKrd6yLu-24" target="Ft1x8JzmgaebfKrd6yLu-3" edge="1">
          <mxGeometry relative="1" as="geometry" />
        </mxCell>
        <mxCell id="Ft1x8JzmgaebfKrd6yLu-24" value="program: TokenProgram&lt;br&gt;lamports: -&lt;br&gt;data: &lt;font&gt;TokenAccount&lt;/font&gt;&lt;br&gt;&amp;nbsp; &amp;nbsp;mint: Afn8...BQr6&lt;br&gt;&amp;nbsp; &amp;nbsp;owner: 2fng...Gfm8&lt;br&gt;&amp;nbsp; &amp;nbsp;amount: &lt;span style=&quot;font-size: 11px&quot;&gt;172.563795&lt;/span&gt;" style="rounded=0;whiteSpace=wrap;html=1;align=left;spacingLeft=5;verticalAlign=top;fontColor=#000000;" parent="Ft1x8JzmgaebfKrd6yLu-1" vertex="1">
          <mxGeometry x="960" y="520" width="160" height="120" as="geometry" />
        </mxCell>
        <mxCell id="Ft1x8JzmgaebfKrd6yLu-25" value="" style="endArrow=classic;html=1;rounded=0;dashed=1;dashPattern=1 1;fontSize=11;fontColor=#CC0000;strokeColor=#CC0000;strokeWidth=5;exitX=0.5;exitY=1;exitDx=0;exitDy=0;entryX=0.5;entryY=0;entryDx=0;entryDy=0;" parent="Ft1x8JzmgaebfKrd6yLu-1" source="Ft1x8JzmgaebfKrd6yLu-26" target="Ft1x8JzmgaebfKrd6yLu-24" edge="1">
          <mxGeometry width="50" height="50" relative="1" as="geometry">
            <mxPoint x="655" y="580" as="sourcePoint" />
            <mxPoint x="595" y="450" as="targetPoint" />
          </mxGeometry>
        </mxCell>
        <mxCell id="Ft1x8JzmgaebfKrd6yLu-42" style="edgeStyle=orthogonalEdgeStyle;rounded=0;orthogonalLoop=1;jettySize=auto;html=1;exitX=0.5;exitY=0;exitDx=0;exitDy=0;entryX=0.5;entryY=1;entryDx=0;entryDy=0;fontSize=10;fontColor=#000000;" parent="Ft1x8JzmgaebfKrd6yLu-1" source="Ft1x8JzmgaebfKrd6yLu-26" target="Ft1x8JzmgaebfKrd6yLu-2" edge="1">
          <mxGeometry relative="1" as="geometry" />
        </mxCell>
        <mxCell id="Ft1x8JzmgaebfKrd6yLu-26" value="program: TokenProgram&lt;br&gt;lamports: -&lt;br&gt;data: &lt;font&gt;TokenAccount&lt;/font&gt;&lt;br&gt;&amp;nbsp; &amp;nbsp;mint: Afn8...BQr6&lt;br&gt;&amp;nbsp; &amp;nbsp;owner: EgxU...EiZ4&lt;br&gt;&amp;nbsp; &amp;nbsp;amount: &lt;font style=&quot;font-size: 8px&quot;&gt;509,999,995.786373&lt;/font&gt;" style="rounded=0;whiteSpace=wrap;html=1;align=left;spacingLeft=5;verticalAlign=top;fontColor=#000000;" parent="Ft1x8JzmgaebfKrd6yLu-1" vertex="1">
          <mxGeometry x="960" y="320" width="160" height="120" as="geometry" />
        </mxCell>
        <mxCell id="Ft1x8JzmgaebfKrd6yLu-27" value="9cHZ...RQSf" style="text;html=1;align=center;verticalAlign=middle;resizable=0;points=[];autosize=1;strokeColor=none;fillColor=none;" parent="Ft1x8JzmgaebfKrd6yLu-1" vertex="1">
          <mxGeometry x="960" y="500" width="80" height="20" as="geometry" />
        </mxCell>
        <mxCell id="Ft1x8JzmgaebfKrd6yLu-28" value="6w8W...GkyF" style="text;html=1;align=center;verticalAlign=middle;resizable=0;points=[];autosize=1;strokeColor=none;fillColor=none;" parent="Ft1x8JzmgaebfKrd6yLu-1" vertex="1">
          <mxGeometry x="960" y="300" width="90" height="20" as="geometry" />
        </mxCell>
        <mxCell id="Ft1x8JzmgaebfKrd6yLu-29" value="&lt;font&gt;報酬回収&lt;/font&gt;" style="text;html=1;align=center;verticalAlign=middle;resizable=0;points=[];autosize=1;strokeColor=none;fillColor=none;fontSize=11;fontColor=#CC0000;" parent="Ft1x8JzmgaebfKrd6yLu-1" vertex="1">
          <mxGeometry x="980" y="450" width="60" height="20" as="geometry" />
        </mxCell>
        <mxCell id="Ft1x8JzmgaebfKrd6yLu-33" value="" style="endArrow=classic;html=1;rounded=0;dashed=1;dashPattern=1 1;fontSize=11;fontColor=#CC0000;strokeColor=#CC0000;strokeWidth=5;exitX=0.5;exitY=1;exitDx=0;exitDy=0;entryX=0.75;entryY=0;entryDx=0;entryDy=0;edgeStyle=orthogonalEdgeStyle;" parent="Ft1x8JzmgaebfKrd6yLu-1" source="Ft1x8JzmgaebfKrd6yLu-34" target="Ft1x8JzmgaebfKrd6yLu-8" edge="1">
          <mxGeometry width="50" height="50" relative="1" as="geometry">
            <mxPoint x="455" y="580" as="sourcePoint" />
            <mxPoint x="840" y="520" as="targetPoint" />
          </mxGeometry>
        </mxCell>
        <mxCell id="Ft1x8JzmgaebfKrd6yLu-41" style="edgeStyle=orthogonalEdgeStyle;rounded=0;orthogonalLoop=1;jettySize=auto;html=1;exitX=0.5;exitY=0;exitDx=0;exitDy=0;entryX=0.5;entryY=1;entryDx=0;entryDy=0;fontSize=10;fontColor=#000000;" parent="Ft1x8JzmgaebfKrd6yLu-1" source="Ft1x8JzmgaebfKrd6yLu-34" target="Ft1x8JzmgaebfKrd6yLu-2" edge="1">
          <mxGeometry relative="1" as="geometry" />
        </mxCell>
        <mxCell id="Ft1x8JzmgaebfKrd6yLu-34" value="program: TokenProgram&lt;br&gt;lamports: -&lt;br&gt;data: &lt;font&gt;TokenAccount&lt;/font&gt;&lt;br&gt;&amp;nbsp; &amp;nbsp;mint: Jd4M...TuDa&lt;br&gt;&amp;nbsp; &amp;nbsp;owner: EgxU...EiZ4&lt;br&gt;&amp;nbsp; &amp;nbsp;amount: &lt;font style=&quot;font-size: 8px&quot;&gt;5,099,999.957864013&lt;/font&gt;" style="rounded=0;whiteSpace=wrap;html=1;align=left;spacingLeft=5;verticalAlign=top;fontColor=#000000;" parent="Ft1x8JzmgaebfKrd6yLu-1" vertex="1">
          <mxGeometry x="760" y="320" width="160" height="120" as="geometry" />
        </mxCell>
        <mxCell id="Ft1x8JzmgaebfKrd6yLu-36" value="3dsu...GtYv" style="text;html=1;align=center;verticalAlign=middle;resizable=0;points=[];autosize=1;strokeColor=none;fillColor=none;" parent="Ft1x8JzmgaebfKrd6yLu-1" vertex="1">
          <mxGeometry x="760" y="300" width="80" height="20" as="geometry" />
        </mxCell>
        <mxCell id="Ft1x8JzmgaebfKrd6yLu-37" value="&lt;font&gt;報酬回収&lt;/font&gt;" style="text;html=1;align=center;verticalAlign=middle;resizable=0;points=[];autosize=1;strokeColor=none;fillColor=none;fontSize=11;fontColor=#CC0000;" parent="Ft1x8JzmgaebfKrd6yLu-1" vertex="1">
          <mxGeometry x="780" y="450" width="60" height="20" as="geometry" />
        </mxCell>
        <mxCell id="Ft1x8JzmgaebfKrd6yLu-38" value="" style="rounded=1;whiteSpace=wrap;html=1;fillColor=none;strokeColor=#b85450;strokeWidth=2;arcSize=7;dashed=1;" parent="Ft1x8JzmgaebfKrd6yLu-1" vertex="1">
          <mxGeometry x="350" y="490" width="780" height="160" as="geometry" />
        </mxCell>
        <mxCell id="Ft1x8JzmgaebfKrd6yLu-39" value="&lt;font&gt;存在しない場合は作成&lt;/font&gt;" style="text;html=1;align=center;verticalAlign=middle;resizable=0;points=[];autosize=1;strokeColor=none;fillColor=none;fontSize=11;fontColor=#CC0000;" parent="Ft1x8JzmgaebfKrd6yLu-1" vertex="1">
          <mxGeometry x="774.5" y="660" width="130" height="20" as="geometry" />
        </mxCell>
        <mxCell id="Ft1x8JzmgaebfKrd6yLu-43" value="" style="endArrow=classic;html=1;rounded=0;dashed=1;dashPattern=1 1;fontSize=11;fontColor=#CC0000;strokeColor=#CC0000;strokeWidth=5;exitX=0.5;exitY=1;exitDx=0;exitDy=0;" parent="Ft1x8JzmgaebfKrd6yLu-1" source="Ft1x8JzmgaebfKrd6yLu-16" target="Ft1x8JzmgaebfKrd6yLu-12" edge="1">
          <mxGeometry width="50" height="50" relative="1" as="geometry">
            <mxPoint x="650" y="450" as="sourcePoint" />
            <mxPoint x="440" y="480" as="targetPoint" />
          </mxGeometry>
        </mxCell>
        <mxCell id="Ft1x8JzmgaebfKrd6yLu-44" value="&lt;font&gt;手数料回収&lt;/font&gt;" style="text;html=1;align=center;verticalAlign=middle;resizable=0;points=[];autosize=1;strokeColor=none;fillColor=none;fontSize=11;fontColor=#CC0000;" parent="Ft1x8JzmgaebfKrd6yLu-1" vertex="1">
          <mxGeometry x="370" y="450" width="70" height="20" as="geometry" />
        </mxCell>
      </root>
    </mxGraphModel>
  </diagram>
  <diagram id="MxjuMMdLhyM--hbZqMzf" name="TransactionBuilder">
    <mxGraphModel dx="1106" dy="1003" grid="1" gridSize="10" guides="1" tooltips="1" connect="1" arrows="1" fold="1" page="1" pageScale="1" pageWidth="1169" pageHeight="827" math="0" shadow="0">
      <root>
        <mxCell id="sRc3bPj7TiJo8JDzJIg4-0" />
        <mxCell id="sRc3bPj7TiJo8JDzJIg4-1" parent="sRc3bPj7TiJo8JDzJIg4-0" />
        <mxCell id="sRc3bPj7TiJo8JDzJIg4-2" value="instruction1.instructions&lt;br style=&quot;font-size: 12px&quot;&gt;&lt;br style=&quot;font-size: 12px&quot;&gt;&lt;br&gt;&lt;br&gt;&lt;br&gt;&lt;br style=&quot;font-size: 12px&quot;&gt;&lt;br style=&quot;font-size: 12px&quot;&gt;&lt;br style=&quot;font-size: 12px&quot;&gt;&lt;br style=&quot;font-size: 12px&quot;&gt;&lt;br style=&quot;font-size: 12px&quot;&gt;&lt;br style=&quot;font-size: 12px&quot;&gt;&lt;br&gt;&lt;br&gt;&lt;br style=&quot;font-size: 12px&quot;&gt;instruction1.cleanupInstructions" style="rounded=0;whiteSpace=wrap;html=1;fontSize=12;fillColor=#f5f5f5;fontColor=#333333;strokeColor=#666666;align=left;spacingLeft=6;" parent="sRc3bPj7TiJo8JDzJIg4-1" vertex="1">
          <mxGeometry x="200" y="200" width="320" height="220" as="geometry" />
        </mxCell>
        <mxCell id="sRc3bPj7TiJo8JDzJIg4-3" value="instruction2.instructions&lt;br style=&quot;font-size: 12px&quot;&gt;&lt;br style=&quot;font-size: 12px&quot;&gt;&lt;br&gt;&lt;br&gt;&lt;br&gt;&lt;br style=&quot;font-size: 12px&quot;&gt;&lt;br style=&quot;font-size: 12px&quot;&gt;&lt;br&gt;&lt;br style=&quot;font-size: 12px&quot;&gt;instruction2.cleanupInstructions" style="rounded=0;whiteSpace=wrap;html=1;fontSize=12;fillColor=#f5f5f5;fontColor=#333333;strokeColor=#666666;align=left;spacingLeft=6;" parent="sRc3bPj7TiJo8JDzJIg4-1" vertex="1">
          <mxGeometry x="220" y="230" width="300" height="160" as="geometry" />
        </mxCell>
        <mxCell id="sRc3bPj7TiJo8JDzJIg4-4" value="instruction3.instructions&lt;br style=&quot;font-size: 12px&quot;&gt;&lt;br style=&quot;font-size: 12px&quot;&gt;&lt;br style=&quot;font-size: 12px&quot;&gt;&lt;br&gt;&lt;br&gt;instruction3.cleanupInstructions" style="rounded=0;whiteSpace=wrap;html=1;fontSize=12;fillColor=#f5f5f5;fontColor=#333333;strokeColor=#666666;align=left;spacingLeft=6;" parent="sRc3bPj7TiJo8JDzJIg4-1" vertex="1">
          <mxGeometry x="240" y="260" width="280" height="100" as="geometry" />
        </mxCell>
        <mxCell id="sRc3bPj7TiJo8JDzJIg4-5" value="instruction4.instructions&lt;br style=&quot;font-size: 12px&quot;&gt;instruction4.cleanupInstructions" style="rounded=0;whiteSpace=wrap;html=1;fontSize=12;fillColor=#f5f5f5;fontColor=#333333;strokeColor=#666666;align=left;spacingLeft=6;" parent="sRc3bPj7TiJo8JDzJIg4-1" vertex="1">
          <mxGeometry x="260" y="290" width="260" height="40" as="geometry" />
        </mxCell>
        <mxCell id="sRc3bPj7TiJo8JDzJIg4-6" value="" style="endArrow=classic;html=1;rounded=0;fontSize=12;fontColor=#000000;" parent="sRc3bPj7TiJo8JDzJIg4-1" edge="1">
          <mxGeometry width="50" height="50" relative="1" as="geometry">
            <mxPoint x="185" y="180" as="sourcePoint" />
            <mxPoint x="185" y="440" as="targetPoint" />
          </mxGeometry>
        </mxCell>
        <mxCell id="sRc3bPj7TiJo8JDzJIg4-7" value="処理順" style="text;html=1;align=center;verticalAlign=middle;resizable=0;points=[];autosize=1;strokeColor=none;fillColor=none;fontSize=12;fontColor=#000000;" parent="sRc3bPj7TiJo8JDzJIg4-1" vertex="1">
          <mxGeometry x="160" y="160" width="50" height="20" as="geometry" />
        </mxCell>
      </root>
    </mxGraphModel>
  </diagram>
  <diagram name="TickArray+Position" id="gYgCUyubweBh9W7oYeTz">
    <mxGraphModel dx="1106" dy="1003" grid="1" gridSize="10" guides="1" tooltips="1" connect="1" arrows="1" fold="1" page="1" pageScale="1" pageWidth="1169" pageHeight="827" math="0" shadow="0">
      <root>
        <mxCell id="Cum6732WYovqNnR_Xii1-0" />
        <mxCell id="Cum6732WYovqNnR_Xii1-1" parent="Cum6732WYovqNnR_Xii1-0" />
        <mxCell id="Cum6732WYovqNnR_Xii1-2" style="edgeStyle=orthogonalEdgeStyle;rounded=0;orthogonalLoop=1;jettySize=auto;html=1;exitX=0.5;exitY=0;exitDx=0;exitDy=0;entryX=0.5;entryY=1;entryDx=0;entryDy=0;fontSize=12;fontColor=#000000;strokeColor=#000000;strokeWidth=1;fillColor=#999999;" parent="Cum6732WYovqNnR_Xii1-1" source="Cum6732WYovqNnR_Xii1-3" target="Cum6732WYovqNnR_Xii1-15" edge="1">
          <mxGeometry relative="1" as="geometry" />
        </mxCell>
        <mxCell id="Cum6732WYovqNnR_Xii1-3" value="program: Whirlpool&lt;br&gt;lamports: -&lt;br&gt;data: &lt;font&gt;TickArray&lt;/font&gt;&lt;br&gt;" style="rounded=0;whiteSpace=wrap;html=1;align=left;spacingLeft=5;verticalAlign=top;fontColor=#000000;" parent="Cum6732WYovqNnR_Xii1-1" vertex="1">
          <mxGeometry x="140" y="440" width="120" height="60" as="geometry" />
        </mxCell>
        <mxCell id="Cum6732WYovqNnR_Xii1-4" style="edgeStyle=orthogonalEdgeStyle;rounded=0;orthogonalLoop=1;jettySize=auto;html=1;exitX=0.5;exitY=0;exitDx=0;exitDy=0;fontSize=5;fontColor=#CC0000;strokeColor=#000000;strokeWidth=1;entryX=0.5;entryY=1;entryDx=0;entryDy=0;" parent="Cum6732WYovqNnR_Xii1-1" source="Cum6732WYovqNnR_Xii1-5" target="Cum6732WYovqNnR_Xii1-15" edge="1">
          <mxGeometry relative="1" as="geometry">
            <mxPoint x="560" y="360" as="targetPoint" />
          </mxGeometry>
        </mxCell>
        <mxCell id="Cum6732WYovqNnR_Xii1-5" value="program: Whirlpool&lt;br&gt;lamports: -&lt;br&gt;data: &lt;font&gt;TickArray&lt;/font&gt;&lt;br&gt;" style="rounded=0;whiteSpace=wrap;html=1;align=left;spacingLeft=5;verticalAlign=top;fontColor=#000000;" parent="Cum6732WYovqNnR_Xii1-1" vertex="1">
          <mxGeometry x="500" y="440" width="120" height="60" as="geometry" />
        </mxCell>
        <mxCell id="Cum6732WYovqNnR_Xii1-6" style="edgeStyle=orthogonalEdgeStyle;rounded=0;orthogonalLoop=1;jettySize=auto;html=1;exitX=0.5;exitY=0;exitDx=0;exitDy=0;entryX=0.5;entryY=1;entryDx=0;entryDy=0;fontSize=5;fontColor=#CC0000;strokeColor=#000000;strokeWidth=1;" parent="Cum6732WYovqNnR_Xii1-1" source="Cum6732WYovqNnR_Xii1-7" target="Cum6732WYovqNnR_Xii1-15" edge="1">
          <mxGeometry relative="1" as="geometry" />
        </mxCell>
        <mxCell id="Cum6732WYovqNnR_Xii1-7" value="program: Whirlpool&lt;br&gt;lamports: -&lt;br&gt;data: &lt;font&gt;TickArray&lt;/font&gt;&lt;br&gt;" style="rounded=0;whiteSpace=wrap;html=1;align=left;spacingLeft=5;verticalAlign=top;fontColor=#000000;" parent="Cum6732WYovqNnR_Xii1-1" vertex="1">
          <mxGeometry x="620" y="440" width="120" height="60" as="geometry" />
        </mxCell>
        <mxCell id="Cum6732WYovqNnR_Xii1-8" style="edgeStyle=orthogonalEdgeStyle;rounded=0;orthogonalLoop=1;jettySize=auto;html=1;exitX=0.5;exitY=0;exitDx=0;exitDy=0;entryX=0.5;entryY=1;entryDx=0;entryDy=0;fontSize=5;fontColor=#CC0000;strokeColor=#000000;strokeWidth=1;" parent="Cum6732WYovqNnR_Xii1-1" source="Cum6732WYovqNnR_Xii1-9" target="Cum6732WYovqNnR_Xii1-15" edge="1">
          <mxGeometry relative="1" as="geometry" />
        </mxCell>
        <mxCell id="Cum6732WYovqNnR_Xii1-9" value="program: Whirlpool&lt;br&gt;lamports: -&lt;br&gt;data: &lt;font&gt;TickArray&lt;/font&gt;&lt;br&gt;" style="rounded=0;whiteSpace=wrap;html=1;align=left;spacingLeft=5;verticalAlign=top;fontColor=#000000;" parent="Cum6732WYovqNnR_Xii1-1" vertex="1">
          <mxGeometry x="740" y="440" width="120" height="60" as="geometry" />
        </mxCell>
        <mxCell id="Cum6732WYovqNnR_Xii1-10" style="edgeStyle=orthogonalEdgeStyle;rounded=0;orthogonalLoop=1;jettySize=auto;html=1;exitX=0.5;exitY=0;exitDx=0;exitDy=0;fontSize=5;fontColor=#CC0000;strokeColor=#000000;strokeWidth=1;entryX=0.5;entryY=1;entryDx=0;entryDy=0;" parent="Cum6732WYovqNnR_Xii1-1" source="Cum6732WYovqNnR_Xii1-11" target="Cum6732WYovqNnR_Xii1-15" edge="1">
          <mxGeometry relative="1" as="geometry">
            <mxPoint x="560" y="360" as="targetPoint" />
          </mxGeometry>
        </mxCell>
        <mxCell id="Cum6732WYovqNnR_Xii1-11" value="program: Whirlpool&lt;br&gt;lamports: -&lt;br&gt;data: &lt;font&gt;TickArray&lt;/font&gt;&lt;br&gt;" style="rounded=0;whiteSpace=wrap;html=1;align=left;spacingLeft=5;verticalAlign=top;fontColor=#000000;" parent="Cum6732WYovqNnR_Xii1-1" vertex="1">
          <mxGeometry x="380" y="440" width="120" height="60" as="geometry" />
        </mxCell>
        <mxCell id="Cum6732WYovqNnR_Xii1-12" style="edgeStyle=orthogonalEdgeStyle;rounded=0;orthogonalLoop=1;jettySize=auto;html=1;exitX=0.5;exitY=0;exitDx=0;exitDy=0;entryX=0.5;entryY=1;entryDx=0;entryDy=0;fontSize=5;fontColor=#CC0000;strokeColor=#000000;strokeWidth=1;" parent="Cum6732WYovqNnR_Xii1-1" source="Cum6732WYovqNnR_Xii1-13" target="Cum6732WYovqNnR_Xii1-15" edge="1">
          <mxGeometry relative="1" as="geometry" />
        </mxCell>
        <mxCell id="Cum6732WYovqNnR_Xii1-13" value="program: Whirlpool&lt;br&gt;lamports: -&lt;br&gt;data: &lt;font&gt;TickArray&lt;/font&gt;&lt;br&gt;" style="rounded=0;whiteSpace=wrap;html=1;align=left;spacingLeft=5;verticalAlign=top;fontColor=#000000;" parent="Cum6732WYovqNnR_Xii1-1" vertex="1">
          <mxGeometry x="260" y="440" width="120" height="60" as="geometry" />
        </mxCell>
        <mxCell id="Cum6732WYovqNnR_Xii1-14" style="edgeStyle=orthogonalEdgeStyle;rounded=0;orthogonalLoop=1;jettySize=auto;html=1;exitX=0.5;exitY=0;exitDx=0;exitDy=0;entryX=0.5;entryY=1;entryDx=0;entryDy=0;fontSize=5;fontColor=#CC0000;strokeColor=#000000;strokeWidth=1;" parent="Cum6732WYovqNnR_Xii1-1" source="Cum6732WYovqNnR_Xii1-15" target="Cum6732WYovqNnR_Xii1-16" edge="1">
          <mxGeometry relative="1" as="geometry" />
        </mxCell>
        <mxCell id="Cum6732WYovqNnR_Xii1-15" value="program: Whirlpool&lt;br&gt;lamports: -&lt;br&gt;data: Whirlpool" style="rounded=0;whiteSpace=wrap;html=1;align=left;spacingLeft=5;verticalAlign=top;fontColor=#000000;" parent="Cum6732WYovqNnR_Xii1-1" vertex="1">
          <mxGeometry x="720" y="300" width="160" height="60" as="geometry" />
        </mxCell>
        <mxCell id="Cum6732WYovqNnR_Xii1-16" value="program: Whirlpool&lt;br&gt;lamports: -&lt;br&gt;data: WhirlpoolsConfig" style="rounded=0;whiteSpace=wrap;html=1;align=left;spacingLeft=5;verticalAlign=top;fontColor=#000000;" parent="Cum6732WYovqNnR_Xii1-1" vertex="1">
          <mxGeometry x="720" y="180" width="160" height="60" as="geometry" />
        </mxCell>
        <mxCell id="Cum6732WYovqNnR_Xii1-18" value="&lt;font style=&quot;font-size: 12px&quot;&gt;tick_lower_indexの位置(-122048)&lt;/font&gt;" style="text;html=1;align=center;verticalAlign=middle;resizable=0;points=[];autosize=1;strokeColor=none;fillColor=none;fontSize=12;fontColor=#000000;" parent="Cum6732WYovqNnR_Xii1-1" vertex="1">
          <mxGeometry x="310" y="550" width="190" height="20" as="geometry" />
        </mxCell>
        <mxCell id="Cum6732WYovqNnR_Xii1-19" style="edgeStyle=orthogonalEdgeStyle;rounded=0;orthogonalLoop=1;jettySize=auto;html=1;exitX=0.5;exitY=0;exitDx=0;exitDy=0;entryX=0.5;entryY=1;entryDx=0;entryDy=0;fontSize=12;fontColor=#000000;strokeColor=#000000;strokeWidth=1;fillColor=#999999;" parent="Cum6732WYovqNnR_Xii1-1" source="Cum6732WYovqNnR_Xii1-20" target="Cum6732WYovqNnR_Xii1-15" edge="1">
          <mxGeometry relative="1" as="geometry" />
        </mxCell>
        <mxCell id="Cum6732WYovqNnR_Xii1-20" value="program: Whirlpool&lt;br&gt;lamports: -&lt;br&gt;data: &lt;font&gt;TickArray&lt;/font&gt;&lt;br&gt;" style="rounded=0;whiteSpace=wrap;html=1;align=left;spacingLeft=5;verticalAlign=top;fontColor=#000000;" parent="Cum6732WYovqNnR_Xii1-1" vertex="1">
          <mxGeometry x="860" y="440" width="120" height="60" as="geometry" />
        </mxCell>
        <mxCell id="Cum6732WYovqNnR_Xii1-26" value="&lt;font style=&quot;font-size: 12px&quot;&gt;tick_upper_indexの位置(-108160)&lt;/font&gt;" style="text;html=1;align=center;verticalAlign=middle;resizable=0;points=[];autosize=1;strokeColor=none;fillColor=none;fontSize=12;fontColor=#000000;" parent="Cum6732WYovqNnR_Xii1-1" vertex="1">
          <mxGeometry x="600" y="550" width="190" height="20" as="geometry" />
        </mxCell>
        <mxCell id="1hcaBgZ2DwgOHIRnOEoT-0" value="" style="rounded=1;whiteSpace=wrap;html=1;fillColor=none;strokeColor=#CC0000;strokeWidth=2;arcSize=7;dashed=1;" parent="Cum6732WYovqNnR_Xii1-1" vertex="1">
          <mxGeometry x="610" y="420" width="140" height="90" as="geometry" />
        </mxCell>
        <mxCell id="1hcaBgZ2DwgOHIRnOEoT-1" value="tick_array_upper" style="text;html=1;align=center;verticalAlign=middle;resizable=0;points=[];autosize=1;strokeColor=none;fillColor=none;fontSize=11;fontColor=#CC0000;" parent="Cum6732WYovqNnR_Xii1-1" vertex="1">
          <mxGeometry x="580" y="510" width="100" height="20" as="geometry" />
        </mxCell>
        <mxCell id="Cum6732WYovqNnR_Xii1-25" value="" style="shape=flexArrow;endArrow=classic;html=1;rounded=0;fontSize=5;fontColor=#CC0000;strokeColor=#000000;strokeWidth=1;fillColor=#999999;" parent="Cum6732WYovqNnR_Xii1-1" edge="1">
          <mxGeometry width="50" height="50" relative="1" as="geometry">
            <mxPoint x="695" y="550" as="sourcePoint" />
            <mxPoint x="695" y="500" as="targetPoint" />
          </mxGeometry>
        </mxCell>
        <mxCell id="1hcaBgZ2DwgOHIRnOEoT-2" value="" style="rounded=1;whiteSpace=wrap;html=1;fillColor=none;strokeColor=#CC0000;strokeWidth=2;arcSize=7;dashed=1;" parent="Cum6732WYovqNnR_Xii1-1" vertex="1">
          <mxGeometry x="370" y="420" width="140" height="90" as="geometry" />
        </mxCell>
        <mxCell id="Cum6732WYovqNnR_Xii1-17" value="" style="shape=flexArrow;endArrow=classic;html=1;rounded=0;fontSize=5;fontColor=#CC0000;strokeColor=#000000;strokeWidth=1;fillColor=#999999;" parent="Cum6732WYovqNnR_Xii1-1" edge="1">
          <mxGeometry width="50" height="50" relative="1" as="geometry">
            <mxPoint x="405" y="550" as="sourcePoint" />
            <mxPoint x="405" y="500" as="targetPoint" />
          </mxGeometry>
        </mxCell>
        <mxCell id="1hcaBgZ2DwgOHIRnOEoT-3" value="tick_array_lower" style="text;html=1;align=center;verticalAlign=middle;resizable=0;points=[];autosize=1;strokeColor=none;fillColor=none;fontSize=11;fontColor=#CC0000;" parent="Cum6732WYovqNnR_Xii1-1" vertex="1">
          <mxGeometry x="430" y="510" width="100" height="20" as="geometry" />
        </mxCell>
        <mxCell id="1hcaBgZ2DwgOHIRnOEoT-5" style="edgeStyle=orthogonalEdgeStyle;rounded=0;orthogonalLoop=1;jettySize=auto;html=1;exitX=0.5;exitY=1;exitDx=0;exitDy=0;entryX=0;entryY=0.5;entryDx=0;entryDy=0;fontSize=12;fontColor=#000000;" parent="Cum6732WYovqNnR_Xii1-1" source="1hcaBgZ2DwgOHIRnOEoT-4" target="Cum6732WYovqNnR_Xii1-15" edge="1">
          <mxGeometry relative="1" as="geometry" />
        </mxCell>
        <mxCell id="k9At_ENttp9LhJ8VIg-4-1" style="edgeStyle=orthogonalEdgeStyle;rounded=0;orthogonalLoop=1;jettySize=auto;html=1;exitX=0;exitY=0.5;exitDx=0;exitDy=0;entryX=1;entryY=0.5;entryDx=0;entryDy=0;fontSize=10;fontColor=#000000;" parent="Cum6732WYovqNnR_Xii1-1" source="1hcaBgZ2DwgOHIRnOEoT-4" target="k9At_ENttp9LhJ8VIg-4-0" edge="1">
          <mxGeometry relative="1" as="geometry" />
        </mxCell>
        <mxCell id="1hcaBgZ2DwgOHIRnOEoT-4" value="program: Whirlpool&lt;br&gt;lamports: -&lt;br&gt;data: Position&lt;br&gt;&amp;nbsp; &amp;nbsp; whirlpool: EgxU...EiZ4&lt;br&gt;&amp;nbsp; &amp;nbsp; position_mint: HAsv...dRD7&lt;br&gt;&amp;nbsp; &amp;nbsp; liquidity: 2272413827&lt;br&gt;&amp;nbsp; &amp;nbsp; tick_lower_index: -122048&lt;br&gt;&amp;nbsp; &amp;nbsp; tick_upper_index: -108160" style="rounded=0;whiteSpace=wrap;html=1;align=left;spacingLeft=5;verticalAlign=top;fontColor=#000000;" parent="Cum6732WYovqNnR_Xii1-1" vertex="1">
          <mxGeometry x="380" y="180" width="240" height="130" as="geometry" />
        </mxCell>
        <mxCell id="jBbVuYrslsSMn3oAhQNG-0" value="Fcrw...rGkR" style="text;html=1;align=center;verticalAlign=middle;resizable=0;points=[];autosize=1;strokeColor=none;fillColor=none;" parent="Cum6732WYovqNnR_Xii1-1" vertex="1">
          <mxGeometry x="720" y="160" width="80" height="20" as="geometry" />
        </mxCell>
        <mxCell id="jBbVuYrslsSMn3oAhQNG-1" value="EgxU...EiZ4" style="text;html=1;align=center;verticalAlign=middle;resizable=0;points=[];autosize=1;strokeColor=none;fillColor=none;" parent="Cum6732WYovqNnR_Xii1-1" vertex="1">
          <mxGeometry x="720" y="280" width="80" height="20" as="geometry" />
        </mxCell>
        <mxCell id="jBbVuYrslsSMn3oAhQNG-2" value="9H4a...jqBt" style="text;html=1;align=center;verticalAlign=middle;resizable=0;points=[];autosize=1;strokeColor=none;fillColor=none;fontSize=10;" parent="Cum6732WYovqNnR_Xii1-1" vertex="1">
          <mxGeometry x="500" y="420" width="60" height="20" as="geometry" />
        </mxCell>
        <mxCell id="jBbVuYrslsSMn3oAhQNG-3" value="G13P...cn9q" style="text;html=1;align=center;verticalAlign=middle;resizable=0;points=[];autosize=1;strokeColor=none;fillColor=none;fontSize=10;" parent="Cum6732WYovqNnR_Xii1-1" vertex="1">
          <mxGeometry x="615" y="420" width="70" height="20" as="geometry" />
        </mxCell>
        <mxCell id="jBbVuYrslsSMn3oAhQNG-4" value="B6n4...pedE" style="text;html=1;align=center;verticalAlign=middle;resizable=0;points=[];autosize=1;strokeColor=none;fillColor=none;fontSize=10;" parent="Cum6732WYovqNnR_Xii1-1" vertex="1">
          <mxGeometry x="375" y="420" width="70" height="20" as="geometry" />
        </mxCell>
        <mxCell id="jBbVuYrslsSMn3oAhQNG-5" value="9AQx...K7Wx" style="text;html=1;align=center;verticalAlign=middle;resizable=0;points=[];autosize=1;strokeColor=none;fillColor=none;fontSize=10;" parent="Cum6732WYovqNnR_Xii1-1" vertex="1">
          <mxGeometry x="255" y="420" width="80" height="20" as="geometry" />
        </mxCell>
        <mxCell id="jBbVuYrslsSMn3oAhQNG-6" value="beSZ...9Quc" style="text;html=1;align=center;verticalAlign=middle;resizable=0;points=[];autosize=1;strokeColor=none;fillColor=none;fontSize=10;" parent="Cum6732WYovqNnR_Xii1-1" vertex="1">
          <mxGeometry x="140" y="420" width="70" height="20" as="geometry" />
        </mxCell>
        <mxCell id="jBbVuYrslsSMn3oAhQNG-7" value="76nt...WHxd" style="text;html=1;align=center;verticalAlign=middle;resizable=0;points=[];autosize=1;strokeColor=none;fillColor=none;fontSize=10;" parent="Cum6732WYovqNnR_Xii1-1" vertex="1">
          <mxGeometry x="740" y="420" width="70" height="20" as="geometry" />
        </mxCell>
        <mxCell id="jBbVuYrslsSMn3oAhQNG-8" value="HCaw...UbY5" style="text;html=1;align=center;verticalAlign=middle;resizable=0;points=[];autosize=1;strokeColor=none;fillColor=none;fontSize=10;" parent="Cum6732WYovqNnR_Xii1-1" vertex="1">
          <mxGeometry x="855" y="420" width="80" height="20" as="geometry" />
        </mxCell>
        <mxCell id="jBbVuYrslsSMn3oAhQNG-10" value="" style="shape=flexArrow;endArrow=classic;html=1;rounded=0;fontSize=5;fontColor=#CC0000;strokeColor=#000000;strokeWidth=1;fillColor=#999999;opacity=30;" parent="Cum6732WYovqNnR_Xii1-1" edge="1">
          <mxGeometry width="50" height="50" relative="1" as="geometry">
            <mxPoint x="550" y="550" as="sourcePoint" />
            <mxPoint x="550" y="500" as="targetPoint" />
          </mxGeometry>
        </mxCell>
        <mxCell id="jBbVuYrslsSMn3oAhQNG-11" value="&lt;font style=&quot;font-size: 12px&quot;&gt;現在価格&lt;/font&gt;" style="text;html=1;align=center;verticalAlign=middle;resizable=0;points=[];autosize=1;strokeColor=none;fillColor=none;fontSize=12;fontColor=#000000;" parent="Cum6732WYovqNnR_Xii1-1" vertex="1">
          <mxGeometry x="520" y="550" width="60" height="20" as="geometry" />
        </mxCell>
        <mxCell id="k9At_ENttp9LhJ8VIg-4-0" value="program: TokenProgram&lt;br&gt;lamports: -&lt;br&gt;data: Mint&lt;br&gt;&amp;nbsp; &amp;nbsp;decimals: 0&lt;br&gt;&amp;nbsp; &amp;nbsp;supply: 1&lt;br&gt;&amp;nbsp; &amp;nbsp;mint_authority: xxx...xxx" style="rounded=0;whiteSpace=wrap;html=1;align=left;spacingLeft=5;verticalAlign=top;" parent="Cum6732WYovqNnR_Xii1-1" vertex="1">
          <mxGeometry x="140" y="180" width="160" height="130" as="geometry" />
        </mxCell>
        <mxCell id="k9At_ENttp9LhJ8VIg-4-2" value="6v6y...zxZx" style="text;html=1;align=center;verticalAlign=middle;resizable=0;points=[];autosize=1;strokeColor=none;fillColor=none;" parent="Cum6732WYovqNnR_Xii1-1" vertex="1">
          <mxGeometry x="380" y="160" width="80" height="20" as="geometry" />
        </mxCell>
        <mxCell id="k9At_ENttp9LhJ8VIg-4-3" value="HAsv...dRD7" style="text;html=1;align=center;verticalAlign=middle;resizable=0;points=[];autosize=1;strokeColor=none;fillColor=none;" parent="Cum6732WYovqNnR_Xii1-1" vertex="1">
          <mxGeometry x="140" y="160" width="80" height="20" as="geometry" />
        </mxCell>
      </root>
    </mxGraphModel>
  </diagram>
  <diagram name="position_open_close" id="aM92P6FjeQ5YjuchKjKH">
    <mxGraphModel dx="1106" dy="1003" grid="1" gridSize="10" guides="1" tooltips="1" connect="1" arrows="1" fold="1" page="1" pageScale="1" pageWidth="1169" pageHeight="827" math="0" shadow="0">
      <root>
        <mxCell id="m4C1sut84IvFQovrEA3j-0" />
        <mxCell id="m4C1sut84IvFQovrEA3j-1" parent="m4C1sut84IvFQovrEA3j-0" />
        <mxCell id="m4C1sut84IvFQovrEA3j-4" value="program: SystemProgram&lt;br&gt;lamports: 1,191,782,892&lt;br&gt;data: -" style="rounded=0;whiteSpace=wrap;html=1;align=left;spacingLeft=5;" parent="m4C1sut84IvFQovrEA3j-1" vertex="1">
          <mxGeometry x="320" y="100" width="160" height="60" as="geometry" />
        </mxCell>
        <mxCell id="m4C1sut84IvFQovrEA3j-5" style="edgeStyle=orthogonalEdgeStyle;rounded=0;orthogonalLoop=1;jettySize=auto;html=1;exitX=1;exitY=0.5;exitDx=0;exitDy=0;entryX=0;entryY=0.5;entryDx=0;entryDy=0;" parent="m4C1sut84IvFQovrEA3j-1" source="m4C1sut84IvFQovrEA3j-7" target="m4C1sut84IvFQovrEA3j-9" edge="1">
          <mxGeometry relative="1" as="geometry">
            <mxPoint x="440" y="410" as="targetPoint" />
            <mxPoint x="490" y="300" as="sourcePoint" />
          </mxGeometry>
        </mxCell>
        <mxCell id="m4C1sut84IvFQovrEA3j-6" style="edgeStyle=orthogonalEdgeStyle;rounded=0;orthogonalLoop=1;jettySize=auto;html=1;exitX=0.5;exitY=0;exitDx=0;exitDy=0;entryX=0.5;entryY=1;entryDx=0;entryDy=0;" parent="m4C1sut84IvFQovrEA3j-1" source="m4C1sut84IvFQovrEA3j-7" target="m4C1sut84IvFQovrEA3j-4" edge="1">
          <mxGeometry relative="1" as="geometry" />
        </mxCell>
        <mxCell id="m4C1sut84IvFQovrEA3j-7" value="program: TokenProgram&lt;br&gt;lamports: &lt;font color=&quot;#cc0000&quot;&gt;0.00203928 SOL&lt;/font&gt;&lt;br&gt;data: &lt;font&gt;TokenAccount&lt;/font&gt;&lt;br&gt;&amp;nbsp; &amp;nbsp;mint: HAsv...dRD7&lt;br&gt;&amp;nbsp; &amp;nbsp;owner: &lt;font&gt;2fng...Gfm8&lt;/font&gt;&lt;br&gt;&amp;nbsp; &amp;nbsp;amount: 1" style="rounded=0;whiteSpace=wrap;html=1;align=left;spacingLeft=5;verticalAlign=top;fontColor=#000000;" parent="m4C1sut84IvFQovrEA3j-1" vertex="1">
          <mxGeometry x="320" y="240" width="160" height="120" as="geometry" />
        </mxCell>
        <mxCell id="m4C1sut84IvFQovrEA3j-8" style="edgeStyle=orthogonalEdgeStyle;rounded=0;orthogonalLoop=1;jettySize=auto;html=1;exitX=0.5;exitY=1;exitDx=0;exitDy=0;entryX=0.5;entryY=0;entryDx=0;entryDy=0;dashed=1;dashPattern=1 1;fontSize=10;fontColor=#000000;strokeColor=#000000;strokeWidth=2;fillColor=#999999;" parent="m4C1sut84IvFQovrEA3j-1" source="m4C1sut84IvFQovrEA3j-9" target="m4C1sut84IvFQovrEA3j-24" edge="1">
          <mxGeometry relative="1" as="geometry" />
        </mxCell>
        <mxCell id="m4C1sut84IvFQovrEA3j-29" value="PDA" style="edgeLabel;html=1;align=center;verticalAlign=middle;resizable=0;points=[];fontSize=10;fontColor=#000000;" parent="m4C1sut84IvFQovrEA3j-8" vertex="1" connectable="0">
          <mxGeometry x="-0.025" relative="1" as="geometry">
            <mxPoint as="offset" />
          </mxGeometry>
        </mxCell>
        <mxCell id="m4C1sut84IvFQovrEA3j-9" value="program: TokenProgram&lt;br&gt;lamports: &lt;font color=&quot;#cc0000&quot;&gt;0.0014616 SOL&lt;/font&gt;&lt;br&gt;data: Mint&lt;br&gt;&amp;nbsp; &amp;nbsp;decimals: 0&lt;br&gt;&amp;nbsp; &amp;nbsp;supply: 1&lt;br&gt;&amp;nbsp; &amp;nbsp;mint_authority: xxx...xxx" style="rounded=0;whiteSpace=wrap;html=1;align=left;spacingLeft=5;verticalAlign=top;" parent="m4C1sut84IvFQovrEA3j-1" vertex="1">
          <mxGeometry x="560" y="240" width="160" height="120" as="geometry" />
        </mxCell>
        <mxCell id="m4C1sut84IvFQovrEA3j-10" value="HAsv...dRD7" style="text;html=1;align=center;verticalAlign=middle;resizable=0;points=[];autosize=1;strokeColor=none;fillColor=none;" parent="m4C1sut84IvFQovrEA3j-1" vertex="1">
          <mxGeometry x="560" y="220" width="80" height="20" as="geometry" />
        </mxCell>
        <mxCell id="m4C1sut84IvFQovrEA3j-11" value="9nTR...3pxp" style="text;html=1;align=center;verticalAlign=middle;resizable=0;points=[];autosize=1;strokeColor=none;fillColor=none;" parent="m4C1sut84IvFQovrEA3j-1" vertex="1">
          <mxGeometry x="320" y="220" width="80" height="20" as="geometry" />
        </mxCell>
        <mxCell id="m4C1sut84IvFQovrEA3j-12" value="2fng...Gfm8" style="text;html=1;align=center;verticalAlign=middle;resizable=0;points=[];autosize=1;strokeColor=none;fillColor=none;" parent="m4C1sut84IvFQovrEA3j-1" vertex="1">
          <mxGeometry x="320" y="80" width="80" height="20" as="geometry" />
        </mxCell>
        <mxCell id="m4C1sut84IvFQovrEA3j-24" value="program: Whirlpool&lt;br&gt;lamports: &lt;font color=&quot;#cc0000&quot;&gt;0.00239424 SOL&lt;/font&gt;&lt;br&gt;data: Position&lt;br&gt;&amp;nbsp; &amp;nbsp;whirlpool: EgxU...EiZ4&lt;br&gt;&amp;nbsp; &amp;nbsp;position_mint: &lt;font style=&quot;font-size: 10px&quot;&gt;HAsv...dRD7&lt;/font&gt;&lt;br&gt;&amp;nbsp; &amp;nbsp;tick_lower_index: xxx&lt;br&gt;&amp;nbsp; &amp;nbsp;tick_upper_index: xxx&lt;br&gt;&amp;nbsp; &amp;nbsp;liquidity: xxx" style="rounded=0;whiteSpace=wrap;html=1;align=left;spacingLeft=5;verticalAlign=top;" parent="m4C1sut84IvFQovrEA3j-1" vertex="1">
          <mxGeometry x="560" y="440" width="160" height="130" as="geometry" />
        </mxCell>
        <mxCell id="m4C1sut84IvFQovrEA3j-25" value="6v6y...zxZx" style="text;html=1;align=center;verticalAlign=middle;resizable=0;points=[];autosize=1;strokeColor=none;fillColor=none;" parent="m4C1sut84IvFQovrEA3j-1" vertex="1">
          <mxGeometry x="560" y="420" width="80" height="20" as="geometry" />
        </mxCell>
        <mxCell id="m4C1sut84IvFQovrEA3j-28" value="program: Metaplex&lt;br&gt;lamports: &lt;font color=&quot;#cc0000&quot;&gt;0.00561672 SOL&lt;/font&gt;&lt;br&gt;data: Metadata&lt;br&gt;&amp;nbsp; &amp;nbsp;..." style="rounded=0;whiteSpace=wrap;html=1;align=left;spacingLeft=5;verticalAlign=top;" parent="m4C1sut84IvFQovrEA3j-1" vertex="1">
          <mxGeometry x="800" y="240" width="160" height="120" as="geometry" />
        </mxCell>
        <mxCell id="m4C1sut84IvFQovrEA3j-30" style="edgeStyle=orthogonalEdgeStyle;rounded=0;orthogonalLoop=1;jettySize=auto;html=1;exitX=1;exitY=0.5;exitDx=0;exitDy=0;entryX=0;entryY=0.5;entryDx=0;entryDy=0;dashed=1;dashPattern=1 1;fontSize=10;fontColor=#000000;strokeColor=#000000;strokeWidth=2;fillColor=#999999;" parent="m4C1sut84IvFQovrEA3j-1" source="m4C1sut84IvFQovrEA3j-9" target="m4C1sut84IvFQovrEA3j-28" edge="1">
          <mxGeometry relative="1" as="geometry">
            <mxPoint x="650" y="370" as="sourcePoint" />
            <mxPoint x="650" y="450" as="targetPoint" />
          </mxGeometry>
        </mxCell>
        <mxCell id="m4C1sut84IvFQovrEA3j-31" value="PDA" style="edgeLabel;html=1;align=center;verticalAlign=middle;resizable=0;points=[];fontSize=10;fontColor=#000000;" parent="m4C1sut84IvFQovrEA3j-30" vertex="1" connectable="0">
          <mxGeometry x="-0.025" relative="1" as="geometry">
            <mxPoint as="offset" />
          </mxGeometry>
        </mxCell>
        <mxCell id="m4C1sut84IvFQovrEA3j-32" value="FoEu...XyEA" style="text;html=1;align=center;verticalAlign=middle;resizable=0;points=[];autosize=1;strokeColor=none;fillColor=none;" parent="m4C1sut84IvFQovrEA3j-1" vertex="1">
          <mxGeometry x="800" y="220" width="80" height="20" as="geometry" />
        </mxCell>
        <mxCell id="IHZ2stTmPWKO41ztHNJB-0" value="" style="rounded=1;whiteSpace=wrap;html=1;fillColor=none;strokeColor=#CC0000;strokeWidth=2;arcSize=7;dashed=1;" parent="m4C1sut84IvFQovrEA3j-1" vertex="1">
          <mxGeometry x="310" y="220" width="180" height="150" as="geometry" />
        </mxCell>
        <mxCell id="IHZ2stTmPWKO41ztHNJB-1" value="クローズ・ポジション時に削除" style="text;html=1;align=center;verticalAlign=middle;resizable=0;points=[];autosize=1;strokeColor=none;fillColor=none;fontSize=11;fontColor=#CC0000;" parent="m4C1sut84IvFQovrEA3j-1" vertex="1">
          <mxGeometry x="315" y="370" width="170" height="20" as="geometry" />
        </mxCell>
        <mxCell id="IHZ2stTmPWKO41ztHNJB-2" value="" style="rounded=1;whiteSpace=wrap;html=1;fillColor=none;strokeColor=#CC0000;strokeWidth=2;arcSize=7;dashed=1;" parent="m4C1sut84IvFQovrEA3j-1" vertex="1">
          <mxGeometry x="550" y="420" width="180" height="160" as="geometry" />
        </mxCell>
        <mxCell id="IHZ2stTmPWKO41ztHNJB-3" value="クローズ・ポジション時に削除" style="text;html=1;align=center;verticalAlign=middle;resizable=0;points=[];autosize=1;strokeColor=none;fillColor=none;fontSize=11;fontColor=#CC0000;" parent="m4C1sut84IvFQovrEA3j-1" vertex="1">
          <mxGeometry x="555" y="580" width="170" height="20" as="geometry" />
        </mxCell>
      </root>
    </mxGraphModel>
  </diagram>
  <diagram name="position_open_wo_meta1" id="7wrYpDGbPOG9J_mXwvUm">
    <mxGraphModel dx="1106" dy="1003" grid="1" gridSize="10" guides="1" tooltips="1" connect="1" arrows="1" fold="1" page="1" pageScale="1" pageWidth="1169" pageHeight="827" math="0" shadow="0">
      <root>
        <mxCell id="LSUgNwlTALwwRj1B71Q4-0" />
        <mxCell id="LSUgNwlTALwwRj1B71Q4-1" parent="LSUgNwlTALwwRj1B71Q4-0" />
        <mxCell id="LSUgNwlTALwwRj1B71Q4-2" value="program: SystemProgram&lt;br&gt;lamports: 1,191,782,892&lt;br&gt;data: -" style="rounded=0;whiteSpace=wrap;html=1;align=left;spacingLeft=5;" parent="LSUgNwlTALwwRj1B71Q4-1" vertex="1">
          <mxGeometry x="320" y="100" width="160" height="60" as="geometry" />
        </mxCell>
        <mxCell id="LSUgNwlTALwwRj1B71Q4-3" style="edgeStyle=orthogonalEdgeStyle;rounded=0;orthogonalLoop=1;jettySize=auto;html=1;exitX=1;exitY=0.5;exitDx=0;exitDy=0;entryX=0;entryY=0.5;entryDx=0;entryDy=0;" parent="LSUgNwlTALwwRj1B71Q4-1" source="LSUgNwlTALwwRj1B71Q4-5" target="LSUgNwlTALwwRj1B71Q4-8" edge="1">
          <mxGeometry relative="1" as="geometry">
            <mxPoint x="440" y="410" as="targetPoint" />
            <mxPoint x="490" y="300" as="sourcePoint" />
          </mxGeometry>
        </mxCell>
        <mxCell id="LSUgNwlTALwwRj1B71Q4-4" style="edgeStyle=orthogonalEdgeStyle;rounded=0;orthogonalLoop=1;jettySize=auto;html=1;exitX=0.5;exitY=0;exitDx=0;exitDy=0;entryX=0.5;entryY=1;entryDx=0;entryDy=0;" parent="LSUgNwlTALwwRj1B71Q4-1" source="LSUgNwlTALwwRj1B71Q4-5" target="LSUgNwlTALwwRj1B71Q4-2" edge="1">
          <mxGeometry relative="1" as="geometry" />
        </mxCell>
        <mxCell id="LSUgNwlTALwwRj1B71Q4-5" value="program: TokenProgram&lt;br&gt;lamports: &lt;font color=&quot;#cc0000&quot;&gt;0.00203928 SOL&lt;/font&gt;&lt;br&gt;data: &lt;font&gt;TokenAccount&lt;/font&gt;&lt;br&gt;&amp;nbsp; &amp;nbsp;mint: HAsv...dRD7&lt;br&gt;&amp;nbsp; &amp;nbsp;owner: &lt;font&gt;2fng...Gfm8&lt;/font&gt;&lt;br&gt;&amp;nbsp; &amp;nbsp;amount: 1" style="rounded=0;whiteSpace=wrap;html=1;align=left;spacingLeft=5;verticalAlign=top;fontColor=#000000;" parent="LSUgNwlTALwwRj1B71Q4-1" vertex="1">
          <mxGeometry x="320" y="240" width="160" height="120" as="geometry" />
        </mxCell>
        <mxCell id="LSUgNwlTALwwRj1B71Q4-6" style="edgeStyle=orthogonalEdgeStyle;rounded=0;orthogonalLoop=1;jettySize=auto;html=1;exitX=0.5;exitY=1;exitDx=0;exitDy=0;entryX=0.5;entryY=0;entryDx=0;entryDy=0;dashed=1;dashPattern=1 1;fontSize=10;fontColor=#000000;strokeColor=#000000;strokeWidth=2;fillColor=#999999;" parent="LSUgNwlTALwwRj1B71Q4-1" source="LSUgNwlTALwwRj1B71Q4-8" target="LSUgNwlTALwwRj1B71Q4-12" edge="1">
          <mxGeometry relative="1" as="geometry" />
        </mxCell>
        <mxCell id="LSUgNwlTALwwRj1B71Q4-7" value="PDA" style="edgeLabel;html=1;align=center;verticalAlign=middle;resizable=0;points=[];fontSize=10;fontColor=#000000;" parent="LSUgNwlTALwwRj1B71Q4-6" vertex="1" connectable="0">
          <mxGeometry x="-0.025" relative="1" as="geometry">
            <mxPoint as="offset" />
          </mxGeometry>
        </mxCell>
        <mxCell id="LSUgNwlTALwwRj1B71Q4-8" value="program: TokenProgram&lt;br&gt;lamports: &lt;font color=&quot;#cc0000&quot;&gt;0.0014616 SOL&lt;/font&gt;&lt;br&gt;data: Mint&lt;br&gt;&amp;nbsp; &amp;nbsp;decimals: 0&lt;br&gt;&amp;nbsp; &amp;nbsp;supply: 1&lt;br&gt;&amp;nbsp; &amp;nbsp;mint_authority: xxx...xxx" style="rounded=0;whiteSpace=wrap;html=1;align=left;spacingLeft=5;verticalAlign=top;" parent="LSUgNwlTALwwRj1B71Q4-1" vertex="1">
          <mxGeometry x="560" y="240" width="160" height="120" as="geometry" />
        </mxCell>
        <mxCell id="LSUgNwlTALwwRj1B71Q4-9" value="HAsv...dRD7" style="text;html=1;align=center;verticalAlign=middle;resizable=0;points=[];autosize=1;strokeColor=none;fillColor=none;" parent="LSUgNwlTALwwRj1B71Q4-1" vertex="1">
          <mxGeometry x="560" y="220" width="80" height="20" as="geometry" />
        </mxCell>
        <mxCell id="LSUgNwlTALwwRj1B71Q4-10" value="9nTR...3pxp" style="text;html=1;align=center;verticalAlign=middle;resizable=0;points=[];autosize=1;strokeColor=none;fillColor=none;" parent="LSUgNwlTALwwRj1B71Q4-1" vertex="1">
          <mxGeometry x="320" y="220" width="80" height="20" as="geometry" />
        </mxCell>
        <mxCell id="LSUgNwlTALwwRj1B71Q4-11" value="2fng...Gfm8" style="text;html=1;align=center;verticalAlign=middle;resizable=0;points=[];autosize=1;strokeColor=none;fillColor=none;" parent="LSUgNwlTALwwRj1B71Q4-1" vertex="1">
          <mxGeometry x="320" y="80" width="80" height="20" as="geometry" />
        </mxCell>
        <mxCell id="LSUgNwlTALwwRj1B71Q4-12" value="program: Whirlpool&lt;br&gt;lamports: &lt;font color=&quot;#cc0000&quot;&gt;0.00239424 SOL&lt;/font&gt;&lt;br&gt;data: Position&lt;br&gt;&amp;nbsp; &amp;nbsp;whirlpool: EgxU...EiZ4&lt;br&gt;&amp;nbsp; &amp;nbsp;position_mint: &lt;font style=&quot;font-size: 10px&quot;&gt;HAsv...dRD7&lt;/font&gt;&lt;br&gt;&amp;nbsp; &amp;nbsp;tick_lower_index: xxx&lt;br&gt;&amp;nbsp; &amp;nbsp;tick_upper_index: xxx&lt;br&gt;&amp;nbsp; &amp;nbsp;liquidity: xxx" style="rounded=0;whiteSpace=wrap;html=1;align=left;spacingLeft=5;verticalAlign=top;" parent="LSUgNwlTALwwRj1B71Q4-1" vertex="1">
          <mxGeometry x="560" y="440" width="160" height="130" as="geometry" />
        </mxCell>
        <mxCell id="LSUgNwlTALwwRj1B71Q4-13" value="6v6y...zxZx" style="text;html=1;align=center;verticalAlign=middle;resizable=0;points=[];autosize=1;strokeColor=none;fillColor=none;" parent="LSUgNwlTALwwRj1B71Q4-1" vertex="1">
          <mxGeometry x="560" y="420" width="80" height="20" as="geometry" />
        </mxCell>
        <mxCell id="LSUgNwlTALwwRj1B71Q4-14" value="program: Metaplex&lt;br&gt;lamports: &lt;font color=&quot;#cc0000&quot;&gt;0.00561672 SOL&lt;/font&gt;&lt;br&gt;data: Metadata&lt;br&gt;&amp;nbsp; &amp;nbsp;..." style="rounded=0;whiteSpace=wrap;html=1;align=left;spacingLeft=5;verticalAlign=top;" parent="LSUgNwlTALwwRj1B71Q4-1" vertex="1">
          <mxGeometry x="800" y="240" width="160" height="120" as="geometry" />
        </mxCell>
        <mxCell id="LSUgNwlTALwwRj1B71Q4-15" style="edgeStyle=orthogonalEdgeStyle;rounded=0;orthogonalLoop=1;jettySize=auto;html=1;exitX=1;exitY=0.5;exitDx=0;exitDy=0;entryX=0;entryY=0.5;entryDx=0;entryDy=0;dashed=1;dashPattern=1 1;fontSize=10;fontColor=#000000;strokeColor=#000000;strokeWidth=2;fillColor=#999999;" parent="LSUgNwlTALwwRj1B71Q4-1" source="LSUgNwlTALwwRj1B71Q4-8" target="LSUgNwlTALwwRj1B71Q4-14" edge="1">
          <mxGeometry relative="1" as="geometry">
            <mxPoint x="650" y="370" as="sourcePoint" />
            <mxPoint x="650" y="450" as="targetPoint" />
          </mxGeometry>
        </mxCell>
        <mxCell id="LSUgNwlTALwwRj1B71Q4-16" value="PDA" style="edgeLabel;html=1;align=center;verticalAlign=middle;resizable=0;points=[];fontSize=10;fontColor=#000000;" parent="LSUgNwlTALwwRj1B71Q4-15" vertex="1" connectable="0">
          <mxGeometry x="-0.025" relative="1" as="geometry">
            <mxPoint as="offset" />
          </mxGeometry>
        </mxCell>
        <mxCell id="LSUgNwlTALwwRj1B71Q4-17" value="FoEu...XyEA" style="text;html=1;align=center;verticalAlign=middle;resizable=0;points=[];autosize=1;strokeColor=none;fillColor=none;" parent="LSUgNwlTALwwRj1B71Q4-1" vertex="1">
          <mxGeometry x="800" y="220" width="80" height="20" as="geometry" />
        </mxCell>
        <mxCell id="LSUgNwlTALwwRj1B71Q4-18" value="" style="rounded=1;whiteSpace=wrap;html=1;fillColor=none;strokeColor=#CC0000;strokeWidth=2;arcSize=7;dashed=1;" parent="LSUgNwlTALwwRj1B71Q4-1" vertex="1">
          <mxGeometry x="550" y="220" width="420" height="150" as="geometry" />
        </mxCell>
        <mxCell id="LSUgNwlTALwwRj1B71Q4-21" value="ポジションをクローズしても、削除できないアカウント" style="text;html=1;align=center;verticalAlign=middle;resizable=0;points=[];autosize=1;strokeColor=none;fillColor=none;fontSize=11;fontColor=#CC0000;" parent="LSUgNwlTALwwRj1B71Q4-1" vertex="1">
          <mxGeometry x="680" y="372" width="290" height="20" as="geometry" />
        </mxCell>
      </root>
    </mxGraphModel>
  </diagram>
  <diagram id="JF7gDx8BrfogAiN2dDcW" name="position_open_wo_meta2">
    <mxGraphModel dx="1106" dy="1003" grid="1" gridSize="10" guides="1" tooltips="1" connect="1" arrows="1" fold="1" page="1" pageScale="1" pageWidth="1169" pageHeight="827" math="0" shadow="0">
      <root>
        <mxCell id="iSJ2j5DBprMJNrWguUDt-0" />
        <mxCell id="iSJ2j5DBprMJNrWguUDt-1" parent="iSJ2j5DBprMJNrWguUDt-0" />
        <mxCell id="iSJ2j5DBprMJNrWguUDt-2" value="program: SystemProgram&lt;br&gt;lamports: 1,191,782,892&lt;br&gt;data: -" style="rounded=0;whiteSpace=wrap;html=1;align=left;spacingLeft=5;" parent="iSJ2j5DBprMJNrWguUDt-1" vertex="1">
          <mxGeometry x="320" y="100" width="160" height="60" as="geometry" />
        </mxCell>
        <mxCell id="iSJ2j5DBprMJNrWguUDt-3" style="edgeStyle=orthogonalEdgeStyle;rounded=0;orthogonalLoop=1;jettySize=auto;html=1;exitX=1;exitY=0.5;exitDx=0;exitDy=0;entryX=0;entryY=0.5;entryDx=0;entryDy=0;" parent="iSJ2j5DBprMJNrWguUDt-1" source="iSJ2j5DBprMJNrWguUDt-5" target="iSJ2j5DBprMJNrWguUDt-8" edge="1">
          <mxGeometry relative="1" as="geometry">
            <mxPoint x="440" y="410" as="targetPoint" />
            <mxPoint x="490" y="300" as="sourcePoint" />
          </mxGeometry>
        </mxCell>
        <mxCell id="iSJ2j5DBprMJNrWguUDt-4" style="edgeStyle=orthogonalEdgeStyle;rounded=0;orthogonalLoop=1;jettySize=auto;html=1;exitX=0.5;exitY=0;exitDx=0;exitDy=0;entryX=0.5;entryY=1;entryDx=0;entryDy=0;" parent="iSJ2j5DBprMJNrWguUDt-1" source="iSJ2j5DBprMJNrWguUDt-5" target="iSJ2j5DBprMJNrWguUDt-2" edge="1">
          <mxGeometry relative="1" as="geometry" />
        </mxCell>
        <mxCell id="iSJ2j5DBprMJNrWguUDt-5" value="program: TokenProgram&lt;br&gt;lamports: &lt;font color=&quot;#cc0000&quot;&gt;0.00203928 SOL&lt;/font&gt;&lt;br&gt;data: &lt;font&gt;TokenAccount&lt;/font&gt;&lt;br&gt;&amp;nbsp; &amp;nbsp;mint: HAsv...dRD7&lt;br&gt;&amp;nbsp; &amp;nbsp;owner: &lt;font&gt;2fng...Gfm8&lt;/font&gt;&lt;br&gt;&amp;nbsp; &amp;nbsp;amount: 1" style="rounded=0;whiteSpace=wrap;html=1;align=left;spacingLeft=5;verticalAlign=top;fontColor=#000000;" parent="iSJ2j5DBprMJNrWguUDt-1" vertex="1">
          <mxGeometry x="320" y="240" width="160" height="120" as="geometry" />
        </mxCell>
        <mxCell id="iSJ2j5DBprMJNrWguUDt-6" style="edgeStyle=orthogonalEdgeStyle;rounded=0;orthogonalLoop=1;jettySize=auto;html=1;exitX=0.5;exitY=1;exitDx=0;exitDy=0;entryX=0.5;entryY=0;entryDx=0;entryDy=0;dashed=1;dashPattern=1 1;fontSize=10;fontColor=#000000;strokeColor=#000000;strokeWidth=2;fillColor=#999999;" parent="iSJ2j5DBprMJNrWguUDt-1" source="iSJ2j5DBprMJNrWguUDt-8" target="iSJ2j5DBprMJNrWguUDt-12" edge="1">
          <mxGeometry relative="1" as="geometry" />
        </mxCell>
        <mxCell id="iSJ2j5DBprMJNrWguUDt-7" value="PDA" style="edgeLabel;html=1;align=center;verticalAlign=middle;resizable=0;points=[];fontSize=10;fontColor=#000000;" parent="iSJ2j5DBprMJNrWguUDt-6" vertex="1" connectable="0">
          <mxGeometry x="-0.025" relative="1" as="geometry">
            <mxPoint as="offset" />
          </mxGeometry>
        </mxCell>
        <mxCell id="iSJ2j5DBprMJNrWguUDt-8" value="program: TokenProgram&lt;br&gt;lamports: &lt;font color=&quot;#cc0000&quot;&gt;0.0014616 SOL&lt;/font&gt;&lt;br&gt;data: Mint&lt;br&gt;&amp;nbsp; &amp;nbsp;decimals: 0&lt;br&gt;&amp;nbsp; &amp;nbsp;supply: 1&lt;br&gt;&amp;nbsp; &amp;nbsp;mint_authority: xxx...xxx" style="rounded=0;whiteSpace=wrap;html=1;align=left;spacingLeft=5;verticalAlign=top;" parent="iSJ2j5DBprMJNrWguUDt-1" vertex="1">
          <mxGeometry x="560" y="240" width="160" height="120" as="geometry" />
        </mxCell>
        <mxCell id="iSJ2j5DBprMJNrWguUDt-9" value="HAsv...dRD7" style="text;html=1;align=center;verticalAlign=middle;resizable=0;points=[];autosize=1;strokeColor=none;fillColor=none;" parent="iSJ2j5DBprMJNrWguUDt-1" vertex="1">
          <mxGeometry x="560" y="220" width="80" height="20" as="geometry" />
        </mxCell>
        <mxCell id="iSJ2j5DBprMJNrWguUDt-10" value="9nTR...3pxp" style="text;html=1;align=center;verticalAlign=middle;resizable=0;points=[];autosize=1;strokeColor=none;fillColor=none;" parent="iSJ2j5DBprMJNrWguUDt-1" vertex="1">
          <mxGeometry x="320" y="220" width="80" height="20" as="geometry" />
        </mxCell>
        <mxCell id="iSJ2j5DBprMJNrWguUDt-11" value="2fng...Gfm8" style="text;html=1;align=center;verticalAlign=middle;resizable=0;points=[];autosize=1;strokeColor=none;fillColor=none;" parent="iSJ2j5DBprMJNrWguUDt-1" vertex="1">
          <mxGeometry x="320" y="80" width="80" height="20" as="geometry" />
        </mxCell>
        <mxCell id="iSJ2j5DBprMJNrWguUDt-12" value="program: Whirlpool&lt;br&gt;lamports: &lt;font color=&quot;#cc0000&quot;&gt;0.00239424 SOL&lt;/font&gt;&lt;br&gt;data: Position&lt;br&gt;&amp;nbsp; &amp;nbsp;whirlpool: EgxU...EiZ4&lt;br&gt;&amp;nbsp; &amp;nbsp;position_mint: &lt;font style=&quot;font-size: 10px&quot;&gt;HAsv...dRD7&lt;/font&gt;&lt;br&gt;&amp;nbsp; &amp;nbsp;tick_lower_index: xxx&lt;br&gt;&amp;nbsp; &amp;nbsp;tick_upper_index: xxx&lt;br&gt;&amp;nbsp; &amp;nbsp;liquidity: xxx" style="rounded=0;whiteSpace=wrap;html=1;align=left;spacingLeft=5;verticalAlign=top;" parent="iSJ2j5DBprMJNrWguUDt-1" vertex="1">
          <mxGeometry x="560" y="440" width="160" height="130" as="geometry" />
        </mxCell>
        <mxCell id="iSJ2j5DBprMJNrWguUDt-13" value="6v6y...zxZx" style="text;html=1;align=center;verticalAlign=middle;resizable=0;points=[];autosize=1;strokeColor=none;fillColor=none;" parent="iSJ2j5DBprMJNrWguUDt-1" vertex="1">
          <mxGeometry x="560" y="420" width="80" height="20" as="geometry" />
        </mxCell>
        <mxCell id="iSJ2j5DBprMJNrWguUDt-14" value="without Metadata" style="rounded=0;whiteSpace=wrap;html=1;align=center;spacingLeft=5;verticalAlign=middle;fontColor=#333333;fillColor=#f5f5f5;strokeColor=#666666;" parent="iSJ2j5DBprMJNrWguUDt-1" vertex="1">
          <mxGeometry x="800" y="240" width="160" height="120" as="geometry" />
        </mxCell>
        <mxCell id="iSJ2j5DBprMJNrWguUDt-15" style="edgeStyle=orthogonalEdgeStyle;rounded=0;orthogonalLoop=1;jettySize=auto;html=1;exitX=1;exitY=0.5;exitDx=0;exitDy=0;entryX=0;entryY=0.5;entryDx=0;entryDy=0;dashed=1;dashPattern=1 1;fontSize=10;fontColor=#000000;strokeColor=#000000;strokeWidth=2;fillColor=#999999;" parent="iSJ2j5DBprMJNrWguUDt-1" source="iSJ2j5DBprMJNrWguUDt-8" target="iSJ2j5DBprMJNrWguUDt-14" edge="1">
          <mxGeometry relative="1" as="geometry">
            <mxPoint x="650" y="370" as="sourcePoint" />
            <mxPoint x="650" y="450" as="targetPoint" />
          </mxGeometry>
        </mxCell>
        <mxCell id="iSJ2j5DBprMJNrWguUDt-16" value="PDA" style="edgeLabel;html=1;align=center;verticalAlign=middle;resizable=0;points=[];fontSize=10;fontColor=#000000;" parent="iSJ2j5DBprMJNrWguUDt-15" vertex="1" connectable="0">
          <mxGeometry x="-0.025" relative="1" as="geometry">
            <mxPoint as="offset" />
          </mxGeometry>
        </mxCell>
        <mxCell id="iSJ2j5DBprMJNrWguUDt-17" value="" style="rounded=1;whiteSpace=wrap;html=1;fillColor=none;strokeColor=#CC0000;strokeWidth=2;arcSize=7;dashed=1;" parent="iSJ2j5DBprMJNrWguUDt-1" vertex="1">
          <mxGeometry x="550" y="220" width="180" height="150" as="geometry" />
        </mxCell>
        <mxCell id="iSJ2j5DBprMJNrWguUDt-18" value="ポジションをクローズしても、削除できないアカウント" style="text;html=1;align=center;verticalAlign=middle;resizable=0;points=[];autosize=1;strokeColor=none;fillColor=none;fontSize=11;fontColor=#CC0000;" parent="iSJ2j5DBprMJNrWguUDt-1" vertex="1">
          <mxGeometry x="495" y="190" width="290" height="20" as="geometry" />
        </mxCell>
      </root>
    </mxGraphModel>
  </diagram>
</mxfile>
